
<global>
ampeg_release=1.25
</global>

<group>
group_label=RR1
seq_length=8
seq_position=1

<region>
hivel=127
key=A#1
lovel=85
offset=687
sample=Cimbasso_staccatissimo_FF_A#1_RR1.opus
</region>

<region>
hivel=127
key=A#2
lovel=85
offset=77
sample=Cimbasso_staccatissimo_FF_A#2_RR1.opus
</region>

<region>
hivel=127
key=A#3
lovel=85
offset=552
sample=Cimbasso_staccatissimo_FF_A#3_RR1.opus
</region>

<region>
hivel=127
key=A1
lovel=85
offset=798
sample=Cimbasso_staccatissimo_FF_A1_RR1.opus
</region>

<region>
hivel=127
key=A2
lovel=85
offset=117
sample=Cimbasso_staccatissimo_FF_A2_RR1.opus
</region>

<region>
hivel=127
key=A3
lovel=85
sample=Cimbasso_staccatissimo_FF_A3_RR1.opus
</region>

<region>
hivel=127
key=B1
lovel=85
offset=6177
sample=Cimbasso_staccatissimo_FF_B1_RR1.opus
</region>

<region>
hivel=127
key=B2
lovel=85
offset=8029
sample=Cimbasso_staccatissimo_FF_B2_RR1.opus
</region>

<region>
hivel=127
key=B3
lovel=85
offset=6794
sample=Cimbasso_staccatissimo_FF_B3_RR1.opus
</region>

<region>
hivel=127
key=C#2
lovel=85
offset=765
sample=Cimbasso_staccatissimo_FF_C#2_RR1.opus
</region>

<region>
hivel=127
key=C#3
lovel=85
offset=8663
sample=Cimbasso_staccatissimo_FF_C#3_RR1.opus
</region>

<region>
hivel=127
key=C2
lovel=85
offset=1016
sample=Cimbasso_staccatissimo_FF_C2_RR1.opus
</region>

<region>
hivel=127
key=C3
lovel=85
offset=8022
sample=Cimbasso_staccatissimo_FF_C3_RR1.opus
</region>

<region>
hivel=127
key=C4
lovel=85
offset=119
sample=Cimbasso_staccatissimo_FF_C4_RR1.opus
</region>

<region>
hivel=127
key=D#2
lovel=85
offset=446
sample=Cimbasso_staccatissimo_FF_D#2_RR1.opus
</region>

<region>
hivel=127
key=D#3
lovel=85
offset=6259
sample=Cimbasso_staccatissimo_FF_D#3_RR1.opus
</region>

<region>
hivel=127
key=D2
lovel=85
offset=350
sample=Cimbasso_staccatissimo_FF_D2_RR1.opus
</region>

<region>
hivel=127
key=D3
lovel=85
offset=7094
sample=Cimbasso_staccatissimo_FF_D3_RR1.opus
</region>

<region>
hivel=127
key=E1
lovel=85
offset=105
sample=Cimbasso_staccatissimo_FF_E1_RR1.opus
</region>

<region>
hivel=127
key=E2
lovel=85
offset=450
sample=Cimbasso_staccatissimo_FF_E2_RR1.opus
</region>

<region>
hivel=127
key=E3
lovel=85
offset=581
sample=Cimbasso_staccatissimo_FF_E3_RR1.opus
</region>

<region>
hivel=127
key=F#1
lovel=85
offset=1623
sample=Cimbasso_staccatissimo_FF_F#1_RR1.opus
</region>

<region>
hivel=127
key=F#2
lovel=85
offset=908
sample=Cimbasso_staccatissimo_FF_F#2_RR1.opus
</region>

<region>
hivel=127
key=F#3
lovel=85
offset=7071
sample=Cimbasso_staccatissimo_FF_F#3_RR1.opus
</region>

<region>
hivel=127
key=F1
lovel=85
sample=Cimbasso_staccatissimo_FF_F1_RR1.opus
</region>

<region>
hivel=127
key=F2
lovel=85
offset=337
sample=Cimbasso_staccatissimo_FF_F2_RR1.opus
</region>

<region>
hivel=127
key=F3
lovel=85
offset=229
sample=Cimbasso_staccatissimo_FF_F3_RR1.opus
</region>

<region>
hivel=127
key=G#1
lovel=85
offset=696
sample=Cimbasso_staccatissimo_FF_G#1_RR1.opus
</region>

<region>
hivel=127
key=G#2
lovel=85
offset=473
sample=Cimbasso_staccatissimo_FF_G#2_RR1.opus
</region>

<region>
hivel=127
key=G#3
lovel=85
offset=527
sample=Cimbasso_staccatissimo_FF_G#3_RR1.opus
</region>

<region>
hivel=127
key=G1
lovel=85
offset=793
sample=Cimbasso_staccatissimo_FF_G1_RR1.opus
</region>

<region>
hivel=127
key=G2
lovel=85
offset=481
sample=Cimbasso_staccatissimo_FF_G2_RR1.opus
</region>

<region>
hivel=127
key=G3
lovel=85
offset=709
sample=Cimbasso_staccatissimo_FF_G3_RR1.opus
</region>

<region>
hivel=84
key=A#1
lovel=43
sample=Cimbasso_staccatissimo_MF_A#1_RR1.opus
</region>

<region>
hivel=84
key=A#2
lovel=43
offset=367
sample=Cimbasso_staccatissimo_MF_A#2_RR1.opus
</region>

<region>
hivel=84
key=A#3
lovel=43
offset=10512
sample=Cimbasso_staccatissimo_MF_A#3_RR1.opus
</region>

<region>
hivel=84
key=A1
lovel=43
offset=1283
sample=Cimbasso_staccatissimo_MF_A1_RR1.opus
</region>

<region>
hivel=84
key=A2
lovel=43
offset=9963
sample=Cimbasso_staccatissimo_MF_A2_RR1.opus
</region>

<region>
hivel=84
key=A3
lovel=43
offset=8846
sample=Cimbasso_staccatissimo_MF_A3_RR1.opus
</region>

<region>
hivel=84
key=B1
lovel=43
offset=83
sample=Cimbasso_staccatissimo_MF_B1_RR1.opus
</region>

<region>
hivel=84
key=B2
lovel=43
offset=7328
sample=Cimbasso_staccatissimo_MF_B2_RR1.opus
</region>

<region>
hivel=84
key=B3
lovel=43
offset=8234
sample=Cimbasso_staccatissimo_MF_B3_RR1.opus
</region>

<region>
hivel=84
key=C#2
lovel=43
offset=578
sample=Cimbasso_staccatissimo_MF_C#2_RR1.opus
</region>

<region>
hivel=84
key=C#3
lovel=43
offset=9628
sample=Cimbasso_staccatissimo_MF_C#3_RR1.opus
</region>

<region>
hivel=84
key=C2
lovel=43
offset=244
sample=Cimbasso_staccatissimo_MF_C2_RR1.opus
</region>

<region>
hivel=84
key=C3
lovel=43
offset=6896
sample=Cimbasso_staccatissimo_MF_C3_RR1.opus
</region>

<region>
hivel=84
key=C4
lovel=43
offset=10023
sample=Cimbasso_staccatissimo_MF_C4_RR1.opus
</region>

<region>
hivel=84
key=D#2
lovel=43
offset=7301
sample=Cimbasso_staccatissimo_MF_D#2_RR1.opus
</region>

<region>
hivel=84
key=D#3
lovel=43
offset=269
sample=Cimbasso_staccatissimo_MF_D#3_RR1.opus
</region>

<region>
hivel=84
key=D2
lovel=43
offset=7481
sample=Cimbasso_staccatissimo_MF_D2_RR1.opus
</region>

<region>
hivel=84
key=D3
lovel=43
offset=370
sample=Cimbasso_staccatissimo_MF_D3_RR1.opus
</region>

<region>
hivel=84
key=E1
lovel=43
offset=7485
sample=Cimbasso_staccatissimo_MF_E1_RR1.opus
</region>

<region>
hivel=84
key=E2
lovel=43
offset=8009
sample=Cimbasso_staccatissimo_MF_E2_RR1.opus
</region>

<region>
hivel=84
key=E3
lovel=43
sample=Cimbasso_staccatissimo_MF_E3_RR1.opus
</region>

<region>
hivel=84
key=F#1
lovel=43
offset=6312
sample=Cimbasso_staccatissimo_MF_F#1_RR1.opus
</region>

<region>
hivel=84
key=F#2
lovel=43
offset=12
sample=Cimbasso_staccatissimo_MF_F#2_RR1.opus
</region>

<region>
hivel=84
key=F#3
lovel=43
offset=8257
sample=Cimbasso_staccatissimo_MF_F#3_RR1.opus
</region>

<region>
hivel=84
key=F1
lovel=43
offset=6563
sample=Cimbasso_staccatissimo_MF_F1_RR1.opus
</region>

<region>
hivel=84
key=F2
lovel=43
sample=Cimbasso_staccatissimo_MF_F2_RR1.opus
</region>

<region>
hivel=84
key=F3
lovel=43
offset=99
sample=Cimbasso_staccatissimo_MF_F3_RR1.opus
</region>

<region>
hivel=84
key=G#1
lovel=43
offset=6655
sample=Cimbasso_staccatissimo_MF_G#1_RR1.opus
</region>

<region>
hivel=84
key=G#2
lovel=43
offset=444
sample=Cimbasso_staccatissimo_MF_G#2_RR1.opus
</region>

<region>
hivel=84
key=G#3
lovel=43
offset=717
sample=Cimbasso_staccatissimo_MF_G#3_RR1.opus
</region>

<region>
hivel=84
key=G1
lovel=43
offset=175
sample=Cimbasso_staccatissimo_MF_G1_RR1.opus
</region>

<region>
hivel=84
key=G2
lovel=43
offset=7486
sample=Cimbasso_staccatissimo_MF_G2_RR1.opus
</region>

<region>
hivel=84
key=G3
lovel=43
offset=8877
sample=Cimbasso_staccatissimo_MF_G3_RR1.opus
</region>

<region>
hivel=42
key=A#1
lovel=0
offset=11018
sample=Cimbasso_staccatissimo_PP_A#1_RR1.opus
</region>

<region>
hivel=42
key=A#2
lovel=0
offset=487
sample=Cimbasso_staccatissimo_PP_A#2_RR1.opus
</region>

<region>
hivel=42
key=A#3
lovel=0
offset=8192
sample=Cimbasso_staccatissimo_PP_A#3_RR1.opus
</region>

<region>
hivel=42
key=A1
lovel=0
offset=13798
sample=Cimbasso_staccatissimo_PP_A1_RR1.opus
</region>

<region>
hivel=42
key=A2
lovel=0
offset=49
sample=Cimbasso_staccatissimo_PP_A2_RR1.opus
</region>

<region>
hivel=42
key=A3
lovel=0
offset=13695
sample=Cimbasso_staccatissimo_PP_A3_RR1.opus
</region>

<region>
hivel=42
key=B1
lovel=0
offset=11912
sample=Cimbasso_staccatissimo_PP_B1_RR1.opus
</region>

<region>
hivel=42
key=B2
lovel=0
offset=11138
sample=Cimbasso_staccatissimo_PP_B2_RR1.opus
</region>

<region>
hivel=42
key=B3
lovel=0
offset=13985
sample=Cimbasso_staccatissimo_PP_B3_RR1.opus
</region>

<region>
hivel=42
key=C#2
lovel=0
offset=11339
sample=Cimbasso_staccatissimo_PP_C#2_RR1.opus
</region>

<region>
hivel=42
key=C#3
lovel=0
offset=11143
sample=Cimbasso_staccatissimo_PP_C#3_RR1.opus
</region>

<region>
hivel=42
key=C2
lovel=0
offset=14052
sample=Cimbasso_staccatissimo_PP_C2_RR1.opus
</region>

<region>
hivel=42
key=C3
lovel=0
offset=10584
sample=Cimbasso_staccatissimo_PP_C3_RR1.opus
</region>

<region>
hivel=42
key=C4
lovel=0
offset=16015
sample=Cimbasso_staccatissimo_PP_C4_RR1.opus
</region>

<region>
hivel=42
key=D#2
lovel=0
offset=12918
sample=Cimbasso_staccatissimo_PP_D#2_RR1.opus
</region>

<region>
hivel=42
key=D#3
lovel=0
offset=11497
sample=Cimbasso_staccatissimo_PP_D#3_RR1.opus
</region>

<region>
hivel=42
key=D2
lovel=0
offset=11894
sample=Cimbasso_staccatissimo_PP_D2_RR1.opus
</region>

<region>
hivel=42
key=D3
lovel=0
offset=663
sample=Cimbasso_staccatissimo_PP_D3_RR1.opus
</region>

<region>
hivel=42
key=E1
lovel=0
offset=13316
sample=Cimbasso_staccatissimo_PP_E1_RR1.opus
</region>

<region>
hivel=42
key=E2
lovel=0
offset=10694
sample=Cimbasso_staccatissimo_PP_E2_RR1.opus
</region>

<region>
hivel=42
key=E3
lovel=0
offset=11278
sample=Cimbasso_staccatissimo_PP_E3_RR1.opus
</region>

<region>
hivel=42
key=F#1
lovel=0
offset=2677
sample=Cimbasso_staccatissimo_PP_F#1_RR1.opus
</region>

<region>
hivel=42
key=F#2
lovel=0
sample=Cimbasso_staccatissimo_PP_F#2_RR1.opus
</region>

<region>
hivel=42
key=F#3
lovel=0
offset=11443
sample=Cimbasso_staccatissimo_PP_F#3_RR1.opus
</region>

<region>
hivel=42
key=F1
lovel=0
offset=832
sample=Cimbasso_staccatissimo_PP_F1_RR1.opus
</region>

<region>
hivel=42
key=F2
lovel=0
offset=11278
sample=Cimbasso_staccatissimo_PP_F2_RR1.opus
</region>

<region>
hivel=42
key=F3
lovel=0
offset=12766
sample=Cimbasso_staccatissimo_PP_F3_RR1.opus
</region>

<region>
hivel=42
key=G#1
lovel=0
offset=15317
sample=Cimbasso_staccatissimo_PP_G#1_RR1.opus
</region>

<region>
hivel=42
key=G#2
lovel=0
offset=7788
sample=Cimbasso_staccatissimo_PP_G#2_RR1.opus
</region>

<region>
hivel=42
key=G#3
lovel=0
offset=689
sample=Cimbasso_staccatissimo_PP_G#3_RR1.opus
</region>

<region>
hivel=42
key=G1
lovel=0
offset=14223
sample=Cimbasso_staccatissimo_PP_G1_RR1.opus
</region>

<region>
hivel=42
key=G2
lovel=0
offset=11945
sample=Cimbasso_staccatissimo_PP_G2_RR1.opus
</region>

<region>
hivel=42
key=G3
lovel=0
offset=294
sample=Cimbasso_staccatissimo_PP_G3_RR1.opus
</region>
</group>

<group>
group_label=RR2
seq_length=8
seq_position=2

<region>
hivel=127
key=A#1
lovel=85
offset=1335
sample=Cimbasso_staccatissimo_FF_A#1_RR2.opus
</region>

<region>
hivel=127
key=A#2
lovel=85
offset=102
sample=Cimbasso_staccatissimo_FF_A#2_RR2.opus
</region>

<region>
hivel=127
key=A#3
lovel=85
offset=705
sample=Cimbasso_staccatissimo_FF_A#3_RR2.opus
</region>

<region>
hivel=127
key=A1
lovel=85
offset=916
sample=Cimbasso_staccatissimo_FF_A1_RR2.opus
</region>

<region>
hivel=127
key=A2
lovel=85
offset=416
sample=Cimbasso_staccatissimo_FF_A2_RR2.opus
</region>

<region>
hivel=127
key=A3
lovel=85
offset=281
sample=Cimbasso_staccatissimo_FF_A3_RR2.opus
</region>

<region>
hivel=127
key=B1
lovel=85
offset=677
sample=Cimbasso_staccatissimo_FF_B1_RR2.opus
</region>

<region>
hivel=127
key=B2
lovel=85
offset=61
sample=Cimbasso_staccatissimo_FF_B2_RR2.opus
</region>

<region>
hivel=127
key=B3
lovel=85
sample=Cimbasso_staccatissimo_FF_B3_RR2.opus
</region>

<region>
hivel=127
key=C#2
lovel=85
offset=1175
sample=Cimbasso_staccatissimo_FF_C#2_RR2.opus
</region>

<region>
hivel=127
key=C#3
lovel=85
offset=591
sample=Cimbasso_staccatissimo_FF_C#3_RR2.opus
</region>

<region>
hivel=127
key=C2
lovel=85
offset=609
sample=Cimbasso_staccatissimo_FF_C2_RR2.opus
</region>

<region>
hivel=127
key=C3
lovel=85
offset=44
sample=Cimbasso_staccatissimo_FF_C3_RR2.opus
</region>

<region>
hivel=127
key=C4
lovel=85
offset=89
sample=Cimbasso_staccatissimo_FF_C4_RR2.opus
</region>

<region>
hivel=127
key=D#2
lovel=85
offset=725
sample=Cimbasso_staccatissimo_FF_D#2_RR2.opus
</region>

<region>
hivel=127
key=D#3
lovel=85
offset=144
sample=Cimbasso_staccatissimo_FF_D#3_RR2.opus
</region>

<region>
hivel=127
key=D2
lovel=85
offset=427
sample=Cimbasso_staccatissimo_FF_D2_RR2.opus
</region>

<region>
hivel=127
key=D3
lovel=85
offset=302
sample=Cimbasso_staccatissimo_FF_D3_RR2.opus
</region>

<region>
hivel=127
key=E1
lovel=85
offset=368
sample=Cimbasso_staccatissimo_FF_E1_RR2.opus
</region>

<region>
hivel=127
key=E2
lovel=85
sample=Cimbasso_staccatissimo_FF_E2_RR2.opus
</region>

<region>
hivel=127
key=E3
lovel=85
offset=262
sample=Cimbasso_staccatissimo_FF_E3_RR2.opus
</region>

<region>
hivel=127
key=F#1
lovel=85
offset=1602
sample=Cimbasso_staccatissimo_FF_F#1_RR2.opus
</region>

<region>
hivel=127
key=F#2
lovel=85
offset=202
sample=Cimbasso_staccatissimo_FF_F#2_RR2.opus
</region>

<region>
hivel=127
key=F#3
lovel=85
offset=540
sample=Cimbasso_staccatissimo_FF_F#3_RR2.opus
</region>

<region>
hivel=127
key=F1
lovel=85
sample=Cimbasso_staccatissimo_FF_F1_RR2.opus
</region>

<region>
hivel=127
key=F2
lovel=85
offset=302
sample=Cimbasso_staccatissimo_FF_F2_RR2.opus
</region>

<region>
hivel=127
key=F3
lovel=85
offset=230
sample=Cimbasso_staccatissimo_FF_F3_RR2.opus
</region>

<region>
hivel=127
key=G#1
lovel=85
offset=456
sample=Cimbasso_staccatissimo_FF_G#1_RR2.opus
</region>

<region>
hivel=127
key=G#2
lovel=85
offset=502
sample=Cimbasso_staccatissimo_FF_G#2_RR2.opus
</region>

<region>
hivel=127
key=G#3
lovel=85
offset=782
sample=Cimbasso_staccatissimo_FF_G#3_RR2.opus
</region>

<region>
hivel=127
key=G1
lovel=85
offset=98
sample=Cimbasso_staccatissimo_FF_G1_RR2.opus
</region>

<region>
hivel=127
key=G2
lovel=85
offset=580
sample=Cimbasso_staccatissimo_FF_G2_RR2.opus
</region>

<region>
hivel=127
key=G3
lovel=85
offset=525
sample=Cimbasso_staccatissimo_FF_G3_RR2.opus
</region>

<region>
hivel=84
key=A#1
lovel=43
offset=437
sample=Cimbasso_staccatissimo_MF_A#1_RR2.opus
</region>

<region>
hivel=84
key=A#2
lovel=43
sample=Cimbasso_staccatissimo_MF_A#2_RR2.opus
</region>

<region>
hivel=84
key=A#3
lovel=43
offset=890
sample=Cimbasso_staccatissimo_MF_A#3_RR2.opus
</region>

<region>
hivel=84
key=A1
lovel=43
offset=963
sample=Cimbasso_staccatissimo_MF_A1_RR2.opus
</region>

<region>
hivel=84
key=A2
lovel=43
offset=93
sample=Cimbasso_staccatissimo_MF_A2_RR2.opus
</region>

<region>
hivel=84
key=A3
lovel=43
sample=Cimbasso_staccatissimo_MF_A3_RR2.opus
</region>

<region>
hivel=84
key=B1
lovel=43
offset=648
sample=Cimbasso_staccatissimo_MF_B1_RR2.opus
</region>

<region>
hivel=84
key=B2
lovel=43
offset=34
sample=Cimbasso_staccatissimo_MF_B2_RR2.opus
</region>

<region>
hivel=84
key=B3
lovel=43
offset=330
sample=Cimbasso_staccatissimo_MF_B3_RR2.opus
</region>

<region>
hivel=84
key=C#2
lovel=43
offset=170
sample=Cimbasso_staccatissimo_MF_C#2_RR2.opus
</region>

<region>
hivel=84
key=C#3
lovel=43
offset=278
sample=Cimbasso_staccatissimo_MF_C#3_RR2.opus
</region>

<region>
hivel=84
key=C2
lovel=43
sample=Cimbasso_staccatissimo_MF_C2_RR2.opus
</region>

<region>
hivel=84
key=C3
lovel=43
offset=457
sample=Cimbasso_staccatissimo_MF_C3_RR2.opus
</region>

<region>
hivel=84
key=C4
lovel=43
offset=63
sample=Cimbasso_staccatissimo_MF_C4_RR2.opus
</region>

<region>
hivel=84
key=D#2
lovel=43
sample=Cimbasso_staccatissimo_MF_D#2_RR2.opus
</region>

<region>
hivel=84
key=D#3
lovel=43
offset=417
sample=Cimbasso_staccatissimo_MF_D#3_RR2.opus
</region>

<region>
hivel=84
key=D2
lovel=43
offset=171
sample=Cimbasso_staccatissimo_MF_D2_RR2.opus
</region>

<region>
hivel=84
key=D3
lovel=43
offset=306
sample=Cimbasso_staccatissimo_MF_D3_RR2.opus
</region>

<region>
hivel=84
key=E1
lovel=43
offset=461
sample=Cimbasso_staccatissimo_MF_E1_RR2.opus
</region>

<region>
hivel=84
key=E2
lovel=43
offset=29
sample=Cimbasso_staccatissimo_MF_E2_RR2.opus
</region>

<region>
hivel=84
key=E3
lovel=43
offset=404
sample=Cimbasso_staccatissimo_MF_E3_RR2.opus
</region>

<region>
hivel=84
key=F#1
lovel=43
sample=Cimbasso_staccatissimo_MF_F#1_RR2.opus
</region>

<region>
hivel=84
key=F#2
lovel=43
sample=Cimbasso_staccatissimo_MF_F#2_RR2.opus
</region>

<region>
hivel=84
key=F#3
lovel=43
offset=375
sample=Cimbasso_staccatissimo_MF_F#3_RR2.opus
</region>

<region>
hivel=84
key=F1
lovel=43
offset=2017
sample=Cimbasso_staccatissimo_MF_F1_RR2.opus
</region>

<region>
hivel=84
key=F2
lovel=43
offset=485
sample=Cimbasso_staccatissimo_MF_F2_RR2.opus
</region>

<region>
hivel=84
key=F3
lovel=43
offset=51
sample=Cimbasso_staccatissimo_MF_F3_RR2.opus
</region>

<region>
hivel=84
key=G#1
lovel=43
offset=5
sample=Cimbasso_staccatissimo_MF_G#1_RR2.opus
</region>

<region>
hivel=84
key=G#2
lovel=43
offset=428
sample=Cimbasso_staccatissimo_MF_G#2_RR2.opus
</region>

<region>
hivel=84
key=G#3
lovel=43
offset=718
sample=Cimbasso_staccatissimo_MF_G#3_RR2.opus
</region>

<region>
hivel=84
key=G1
lovel=43
sample=Cimbasso_staccatissimo_MF_G1_RR2.opus
</region>

<region>
hivel=84
key=G2
lovel=43
offset=112
sample=Cimbasso_staccatissimo_MF_G2_RR2.opus
</region>

<region>
hivel=84
key=G3
lovel=43
offset=349
sample=Cimbasso_staccatissimo_MF_G3_RR2.opus
</region>

<region>
hivel=42
key=A#1
lovel=0
offset=8325
sample=Cimbasso_staccatissimo_PP_A#1_RR2.opus
</region>

<region>
hivel=42
key=A#2
lovel=0
offset=441
sample=Cimbasso_staccatissimo_PP_A#2_RR2.opus
</region>

<region>
hivel=42
key=A#3
lovel=0
sample=Cimbasso_staccatissimo_PP_A#3_RR2.opus
</region>

<region>
hivel=42
key=A1
lovel=0
offset=11448
sample=Cimbasso_staccatissimo_PP_A1_RR2.opus
</region>

<region>
hivel=42
key=A2
lovel=0
offset=81
sample=Cimbasso_staccatissimo_PP_A2_RR2.opus
</region>

<region>
hivel=42
key=A3
lovel=0
offset=705
sample=Cimbasso_staccatissimo_PP_A3_RR2.opus
</region>

<region>
hivel=42
key=B1
lovel=0
sample=Cimbasso_staccatissimo_PP_B1_RR2.opus
</region>

<region>
hivel=42
key=B2
lovel=0
offset=406
sample=Cimbasso_staccatissimo_PP_B2_RR2.opus
</region>

<region>
hivel=42
key=B3
lovel=0
sample=Cimbasso_staccatissimo_PP_B3_RR2.opus
</region>

<region>
hivel=42
key=C#2
lovel=0
offset=12330
sample=Cimbasso_staccatissimo_PP_C#2_RR2.opus
</region>

<region>
hivel=42
key=C#3
lovel=0
offset=525
sample=Cimbasso_staccatissimo_PP_C#3_RR2.opus
</region>

<region>
hivel=42
key=C2
lovel=0
offset=2986
sample=Cimbasso_staccatissimo_PP_C2_RR2.opus
</region>

<region>
hivel=42
key=C3
lovel=0
offset=5377
sample=Cimbasso_staccatissimo_PP_C3_RR2.opus
</region>

<region>
hivel=42
key=C4
lovel=0
offset=121
sample=Cimbasso_staccatissimo_PP_C4_RR2.opus
</region>

<region>
hivel=42
key=D#2
lovel=0
offset=7365
sample=Cimbasso_staccatissimo_PP_D#2_RR2.opus
</region>

<region>
hivel=42
key=D#3
lovel=0
sample=Cimbasso_staccatissimo_PP_D#3_RR2.opus
</region>

<region>
hivel=42
key=D2
lovel=0
offset=207
sample=Cimbasso_staccatissimo_PP_D2_RR2.opus
</region>

<region>
hivel=42
key=D3
lovel=0
sample=Cimbasso_staccatissimo_PP_D3_RR2.opus
</region>

<region>
hivel=42
key=E1
lovel=0
offset=14329
sample=Cimbasso_staccatissimo_PP_E1_RR2.opus
</region>

<region>
hivel=42
key=E2
lovel=0
offset=10089
sample=Cimbasso_staccatissimo_PP_E2_RR2.opus
</region>

<region>
hivel=42
key=E3
lovel=0
offset=7730
sample=Cimbasso_staccatissimo_PP_E3_RR2.opus
</region>

<region>
hivel=42
key=F#1
lovel=0
offset=11340
sample=Cimbasso_staccatissimo_PP_F#1_RR2.opus
</region>

<region>
hivel=42
key=F#2
lovel=0
offset=11378
sample=Cimbasso_staccatissimo_PP_F#2_RR2.opus
</region>

<region>
hivel=42
key=F#3
lovel=0
offset=8627
sample=Cimbasso_staccatissimo_PP_F#3_RR2.opus
</region>

<region>
hivel=42
key=F1
lovel=0
offset=3562
sample=Cimbasso_staccatissimo_PP_F1_RR2.opus
</region>

<region>
hivel=42
key=F2
lovel=0
offset=11125
sample=Cimbasso_staccatissimo_PP_F2_RR2.opus
</region>

<region>
hivel=42
key=F3
lovel=0
offset=272
sample=Cimbasso_staccatissimo_PP_F3_RR2.opus
</region>

<region>
hivel=42
key=G#1
lovel=0
offset=14130
sample=Cimbasso_staccatissimo_PP_G#1_RR2.opus
</region>

<region>
hivel=42
key=G#2
lovel=0
offset=31
sample=Cimbasso_staccatissimo_PP_G#2_RR2.opus
</region>

<region>
hivel=42
key=G#3
lovel=0
offset=470
sample=Cimbasso_staccatissimo_PP_G#3_RR2.opus
</region>

<region>
hivel=42
key=G1
lovel=0
offset=10165
sample=Cimbasso_staccatissimo_PP_G1_RR2.opus
</region>

<region>
hivel=42
key=G2
lovel=0
offset=13109
sample=Cimbasso_staccatissimo_PP_G2_RR2.opus
</region>

<region>
hivel=42
key=G3
lovel=0
offset=7841
sample=Cimbasso_staccatissimo_PP_G3_RR2.opus
</region>
</group>

<group>
group_label=RR3
seq_length=8
seq_position=3

<region>
hivel=127
key=A#1
lovel=85
offset=1393
sample=Cimbasso_staccatissimo_FF_A#1_RR3.opus
</region>

<region>
hivel=127
key=A#2
lovel=85
offset=526
sample=Cimbasso_staccatissimo_FF_A#2_RR3.opus
</region>

<region>
hivel=127
key=A#3
lovel=85
offset=358
sample=Cimbasso_staccatissimo_FF_A#3_RR3.opus
</region>

<region>
hivel=127
key=A1
lovel=85
offset=598
sample=Cimbasso_staccatissimo_FF_A1_RR3.opus
</region>

<region>
hivel=127
key=A2
lovel=85
sample=Cimbasso_staccatissimo_FF_A2_RR3.opus
</region>

<region>
hivel=127
key=A3
lovel=85
offset=753
sample=Cimbasso_staccatissimo_FF_A3_RR3.opus
</region>

<region>
hivel=127
key=B1
lovel=85
offset=435
sample=Cimbasso_staccatissimo_FF_B1_RR3.opus
</region>

<region>
hivel=127
key=B2
lovel=85
sample=Cimbasso_staccatissimo_FF_B2_RR3.opus
</region>

<region>
hivel=127
key=B3
lovel=85
offset=280
sample=Cimbasso_staccatissimo_FF_B3_RR3.opus
</region>

<region>
hivel=127
key=C#2
lovel=85
offset=577
sample=Cimbasso_staccatissimo_FF_C#2_RR3.opus
</region>

<region>
hivel=127
key=C#3
lovel=85
offset=621
sample=Cimbasso_staccatissimo_FF_C#3_RR3.opus
</region>

<region>
hivel=127
key=C2
lovel=85
offset=716
sample=Cimbasso_staccatissimo_FF_C2_RR3.opus
</region>

<region>
hivel=127
key=C3
lovel=85
sample=Cimbasso_staccatissimo_FF_C3_RR3.opus
</region>

<region>
hivel=127
key=C4
lovel=85
offset=697
sample=Cimbasso_staccatissimo_FF_C4_RR3.opus
</region>

<region>
hivel=127
key=D#2
lovel=85
offset=401
sample=Cimbasso_staccatissimo_FF_D#2_RR3.opus
</region>

<region>
hivel=127
key=D#3
lovel=85
offset=343
sample=Cimbasso_staccatissimo_FF_D#3_RR3.opus
</region>

<region>
hivel=127
key=D2
lovel=85
offset=991
sample=Cimbasso_staccatissimo_FF_D2_RR3.opus
</region>

<region>
hivel=127
key=D3
lovel=85
offset=87
sample=Cimbasso_staccatissimo_FF_D3_RR3.opus
</region>

<region>
hivel=127
key=E1
lovel=85
offset=591
sample=Cimbasso_staccatissimo_FF_E1_RR3.opus
</region>

<region>
hivel=127
key=E2
lovel=85
offset=454
sample=Cimbasso_staccatissimo_FF_E2_RR3.opus
</region>

<region>
hivel=127
key=E3
lovel=85
offset=124
sample=Cimbasso_staccatissimo_FF_E3_RR3.opus
</region>

<region>
hivel=127
key=F#1
lovel=85
offset=1246
sample=Cimbasso_staccatissimo_FF_F#1_RR3.opus
</region>

<region>
hivel=127
key=F#2
lovel=85
offset=512
sample=Cimbasso_staccatissimo_FF_F#2_RR3.opus
</region>

<region>
hivel=127
key=F#3
lovel=85
offset=475
sample=Cimbasso_staccatissimo_FF_F#3_RR3.opus
</region>

<region>
hivel=127
key=F1
lovel=85
offset=445
sample=Cimbasso_staccatissimo_FF_F1_RR3.opus
</region>

<region>
hivel=127
key=F2
lovel=85
offset=322
sample=Cimbasso_staccatissimo_FF_F2_RR3.opus
</region>

<region>
hivel=127
key=F3
lovel=85
offset=478
sample=Cimbasso_staccatissimo_FF_F3_RR3.opus
</region>

<region>
hivel=127
key=G#1
lovel=85
offset=453
sample=Cimbasso_staccatissimo_FF_G#1_RR3.opus
</region>

<region>
hivel=127
key=G#2
lovel=85
offset=473
sample=Cimbasso_staccatissimo_FF_G#2_RR3.opus
</region>

<region>
hivel=127
key=G#3
lovel=85
offset=392
sample=Cimbasso_staccatissimo_FF_G#3_RR3.opus
</region>

<region>
hivel=127
key=G1
lovel=85
offset=858
sample=Cimbasso_staccatissimo_FF_G1_RR3.opus
</region>

<region>
hivel=127
key=G2
lovel=85
sample=Cimbasso_staccatissimo_FF_G2_RR3.opus
</region>

<region>
hivel=127
key=G3
lovel=85
offset=679
sample=Cimbasso_staccatissimo_FF_G3_RR3.opus
</region>

<region>
hivel=84
key=A#1
lovel=43
offset=435
sample=Cimbasso_staccatissimo_MF_A#1_RR3.opus
</region>

<region>
hivel=84
key=A#2
lovel=43
offset=379
sample=Cimbasso_staccatissimo_MF_A#2_RR3.opus
</region>

<region>
hivel=84
key=A#3
lovel=43
offset=720
sample=Cimbasso_staccatissimo_MF_A#3_RR3.opus
</region>

<region>
hivel=84
key=A1
lovel=43
offset=1504
sample=Cimbasso_staccatissimo_MF_A1_RR3.opus
</region>

<region>
hivel=84
key=A2
lovel=43
offset=444
sample=Cimbasso_staccatissimo_MF_A2_RR3.opus
</region>

<region>
hivel=84
key=A3
lovel=43
offset=735
sample=Cimbasso_staccatissimo_MF_A3_RR3.opus
</region>

<region>
hivel=84
key=B1
lovel=43
sample=Cimbasso_staccatissimo_MF_B1_RR3.opus
</region>

<region>
hivel=84
key=B2
lovel=43
offset=43
sample=Cimbasso_staccatissimo_MF_B2_RR3.opus
</region>

<region>
hivel=84
key=B3
lovel=43
offset=488
sample=Cimbasso_staccatissimo_MF_B3_RR3.opus
</region>

<region>
hivel=84
key=C#2
lovel=43
sample=Cimbasso_staccatissimo_MF_C#2_RR3.opus
</region>

<region>
hivel=84
key=C#3
lovel=43
offset=432
sample=Cimbasso_staccatissimo_MF_C#3_RR3.opus
</region>

<region>
hivel=84
key=C2
lovel=43
offset=378
sample=Cimbasso_staccatissimo_MF_C2_RR3.opus
</region>

<region>
hivel=84
key=C3
lovel=43
offset=69
sample=Cimbasso_staccatissimo_MF_C3_RR3.opus
</region>

<region>
hivel=84
key=C4
lovel=43
offset=65
sample=Cimbasso_staccatissimo_MF_C4_RR3.opus
</region>

<region>
hivel=84
key=D#2
lovel=43
sample=Cimbasso_staccatissimo_MF_D#2_RR3.opus
</region>

<region>
hivel=84
key=D#3
lovel=43
offset=244
sample=Cimbasso_staccatissimo_MF_D#3_RR3.opus
</region>

<region>
hivel=84
key=D2
lovel=43
offset=95
sample=Cimbasso_staccatissimo_MF_D2_RR3.opus
</region>

<region>
hivel=84
key=D3
lovel=43
offset=297
sample=Cimbasso_staccatissimo_MF_D3_RR3.opus
</region>

<region>
hivel=84
key=E1
lovel=43
offset=308
sample=Cimbasso_staccatissimo_MF_E1_RR3.opus
</region>

<region>
hivel=84
key=E2
lovel=43
offset=31
sample=Cimbasso_staccatissimo_MF_E2_RR3.opus
</region>

<region>
hivel=84
key=E3
lovel=43
sample=Cimbasso_staccatissimo_MF_E3_RR3.opus
</region>

<region>
hivel=84
key=F#1
lovel=43
offset=607
sample=Cimbasso_staccatissimo_MF_F#1_RR3.opus
</region>

<region>
hivel=84
key=F#2
lovel=43
offset=762
sample=Cimbasso_staccatissimo_MF_F#2_RR3.opus
</region>

<region>
hivel=84
key=F#3
lovel=43
offset=358
sample=Cimbasso_staccatissimo_MF_F#3_RR3.opus
</region>

<region>
hivel=84
key=F1
lovel=43
offset=802
sample=Cimbasso_staccatissimo_MF_F1_RR3.opus
</region>

<region>
hivel=84
key=F2
lovel=43
sample=Cimbasso_staccatissimo_MF_F2_RR3.opus
</region>

<region>
hivel=84
key=F3
lovel=43
offset=93
sample=Cimbasso_staccatissimo_MF_F3_RR3.opus
</region>

<region>
hivel=84
key=G#1
lovel=43
sample=Cimbasso_staccatissimo_MF_G#1_RR3.opus
</region>

<region>
hivel=84
key=G#2
lovel=43
sample=Cimbasso_staccatissimo_MF_G#2_RR3.opus
</region>

<region>
hivel=84
key=G#3
lovel=43
offset=728
sample=Cimbasso_staccatissimo_MF_G#3_RR3.opus
</region>

<region>
hivel=84
key=G1
lovel=43
sample=Cimbasso_staccatissimo_MF_G1_RR3.opus
</region>

<region>
hivel=84
key=G2
lovel=43
sample=Cimbasso_staccatissimo_MF_G2_RR3.opus
</region>

<region>
hivel=84
key=G3
lovel=43
offset=572
sample=Cimbasso_staccatissimo_MF_G3_RR3.opus
</region>

<region>
hivel=42
key=A#1
lovel=0
offset=1363
sample=Cimbasso_staccatissimo_PP_A#1_RR3.opus
</region>

<region>
hivel=42
key=A#2
lovel=0
offset=446
sample=Cimbasso_staccatissimo_PP_A#2_RR3.opus
</region>

<region>
hivel=42
key=A#3
lovel=0
offset=385
sample=Cimbasso_staccatissimo_PP_A#3_RR3.opus
</region>

<region>
hivel=42
key=A1
lovel=0
offset=10784
sample=Cimbasso_staccatissimo_PP_A1_RR3.opus
</region>

<region>
hivel=42
key=A2
lovel=0
offset=939
sample=Cimbasso_staccatissimo_PP_A2_RR3.opus
</region>

<region>
hivel=42
key=A3
lovel=0
offset=732
sample=Cimbasso_staccatissimo_PP_A3_RR3.opus
</region>

<region>
hivel=42
key=B1
lovel=0
offset=10323
sample=Cimbasso_staccatissimo_PP_B1_RR3.opus
</region>

<region>
hivel=42
key=B2
lovel=0
offset=442
sample=Cimbasso_staccatissimo_PP_B2_RR3.opus
</region>

<region>
hivel=42
key=B3
lovel=0
sample=Cimbasso_staccatissimo_PP_B3_RR3.opus
</region>

<region>
hivel=42
key=C#2
lovel=0
offset=11360
sample=Cimbasso_staccatissimo_PP_C#2_RR3.opus
</region>

<region>
hivel=42
key=C#3
lovel=0
offset=67
sample=Cimbasso_staccatissimo_PP_C#3_RR3.opus
</region>

<region>
hivel=42
key=C2
lovel=0
offset=12918
sample=Cimbasso_staccatissimo_PP_C2_RR3.opus
</region>

<region>
hivel=42
key=C3
lovel=0
offset=436
sample=Cimbasso_staccatissimo_PP_C3_RR3.opus
</region>

<region>
hivel=42
key=C4
lovel=0
offset=443
sample=Cimbasso_staccatissimo_PP_C4_RR3.opus
</region>

<region>
hivel=42
key=D#2
lovel=0
offset=1913
sample=Cimbasso_staccatissimo_PP_D#2_RR3.opus
</region>

<region>
hivel=42
key=D#3
lovel=0
offset=11929
sample=Cimbasso_staccatissimo_PP_D#3_RR3.opus
</region>

<region>
hivel=42
key=D2
lovel=0
offset=165
sample=Cimbasso_staccatissimo_PP_D2_RR3.opus
</region>

<region>
hivel=42
key=D3
lovel=0
offset=737
sample=Cimbasso_staccatissimo_PP_D3_RR3.opus
</region>

<region>
hivel=42
key=E1
lovel=0
offset=14021
sample=Cimbasso_staccatissimo_PP_E1_RR3.opus
</region>

<region>
hivel=42
key=E2
lovel=0
offset=10683
sample=Cimbasso_staccatissimo_PP_E2_RR3.opus
</region>

<region>
hivel=42
key=E3
lovel=0
offset=8823
sample=Cimbasso_staccatissimo_PP_E3_RR3.opus
</region>

<region>
hivel=42
key=F#1
lovel=0
offset=9962
sample=Cimbasso_staccatissimo_PP_F#1_RR3.opus
</region>

<region>
hivel=42
key=F#2
lovel=0
offset=9438
sample=Cimbasso_staccatissimo_PP_F#2_RR3.opus
</region>

<region>
hivel=42
key=F#3
lovel=0
offset=555
sample=Cimbasso_staccatissimo_PP_F#3_RR3.opus
</region>

<region>
hivel=42
key=F1
lovel=0
offset=6892
sample=Cimbasso_staccatissimo_PP_F1_RR3.opus
</region>

<region>
hivel=42
key=F2
lovel=0
offset=10708
sample=Cimbasso_staccatissimo_PP_F2_RR3.opus
</region>

<region>
hivel=42
key=F3
lovel=0
offset=323
sample=Cimbasso_staccatissimo_PP_F3_RR3.opus
</region>

<region>
hivel=42
key=G#1
lovel=0
offset=12882
sample=Cimbasso_staccatissimo_PP_G#1_RR3.opus
</region>

<region>
hivel=42
key=G#2
lovel=0
offset=469
sample=Cimbasso_staccatissimo_PP_G#2_RR3.opus
</region>

<region>
hivel=42
key=G#3
lovel=0
offset=260
sample=Cimbasso_staccatissimo_PP_G#3_RR3.opus
</region>

<region>
hivel=42
key=G1
lovel=0
offset=11795
sample=Cimbasso_staccatissimo_PP_G1_RR3.opus
</region>

<region>
hivel=42
key=G2
lovel=0
offset=11683
sample=Cimbasso_staccatissimo_PP_G2_RR3.opus
</region>

<region>
hivel=42
key=G3
lovel=0
offset=292
sample=Cimbasso_staccatissimo_PP_G3_RR3.opus
</region>
</group>

<group>
group_label=RR4
seq_length=8
seq_position=4

<region>
hivel=127
key=A#1
lovel=85
offset=587
sample=Cimbasso_staccatissimo_FF_A#1_RR4.opus
</region>

<region>
hivel=127
key=A#2
lovel=85
offset=96
sample=Cimbasso_staccatissimo_FF_A#2_RR4.opus
</region>

<region>
hivel=127
key=A#3
lovel=85
offset=571
sample=Cimbasso_staccatissimo_FF_A#3_RR4.opus
</region>

<region>
hivel=127
key=A1
lovel=85
offset=603
sample=Cimbasso_staccatissimo_FF_A1_RR4.opus
</region>

<region>
hivel=127
key=A2
lovel=85
offset=407
sample=Cimbasso_staccatissimo_FF_A2_RR4.opus
</region>

<region>
hivel=127
key=A3
lovel=85
offset=757
sample=Cimbasso_staccatissimo_FF_A3_RR4.opus
</region>

<region>
hivel=127
key=B1
lovel=85
offset=330
sample=Cimbasso_staccatissimo_FF_B1_RR4.opus
</region>

<region>
hivel=127
key=B2
lovel=85
sample=Cimbasso_staccatissimo_FF_B2_RR4.opus
</region>

<region>
hivel=127
key=B3
lovel=85
sample=Cimbasso_staccatissimo_FF_B3_RR4.opus
</region>

<region>
hivel=127
key=C#2
lovel=85
offset=446
sample=Cimbasso_staccatissimo_FF_C#2_RR4.opus
</region>

<region>
hivel=127
key=C#3
lovel=85
offset=65
sample=Cimbasso_staccatissimo_FF_C#3_RR4.opus
</region>

<region>
hivel=127
key=C2
lovel=85
offset=674
sample=Cimbasso_staccatissimo_FF_C2_RR4.opus
</region>

<region>
hivel=127
key=C3
lovel=85
sample=Cimbasso_staccatissimo_FF_C3_RR4.opus
</region>

<region>
hivel=127
key=C4
lovel=85
offset=684
sample=Cimbasso_staccatissimo_FF_C4_RR4.opus
</region>

<region>
hivel=127
key=D#2
lovel=85
offset=379
sample=Cimbasso_staccatissimo_FF_D#2_RR4.opus
</region>

<region>
hivel=127
key=D#3
lovel=85
offset=111
sample=Cimbasso_staccatissimo_FF_D#3_RR4.opus
</region>

<region>
hivel=127
key=D2
lovel=85
offset=746
sample=Cimbasso_staccatissimo_FF_D2_RR4.opus
</region>

<region>
hivel=127
key=D3
lovel=85
offset=432
sample=Cimbasso_staccatissimo_FF_D3_RR4.opus
</region>

<region>
hivel=127
key=E1
lovel=85
offset=474
sample=Cimbasso_staccatissimo_FF_E1_RR4.opus
</region>

<region>
hivel=127
key=E2
lovel=85
offset=585
sample=Cimbasso_staccatissimo_FF_E2_RR4.opus
</region>

<region>
hivel=127
key=E3
lovel=85
offset=225
sample=Cimbasso_staccatissimo_FF_E3_RR4.opus
</region>

<region>
hivel=127
key=F#1
lovel=85
offset=2324
sample=Cimbasso_staccatissimo_FF_F#1_RR4.opus
</region>

<region>
hivel=127
key=F#2
lovel=85
offset=585
sample=Cimbasso_staccatissimo_FF_F#2_RR4.opus
</region>

<region>
hivel=127
key=F#3
lovel=85
offset=341
sample=Cimbasso_staccatissimo_FF_F#3_RR4.opus
</region>

<region>
hivel=127
key=F1
lovel=85
sample=Cimbasso_staccatissimo_FF_F1_RR4.opus
</region>

<region>
hivel=127
key=F2
lovel=85
offset=328
sample=Cimbasso_staccatissimo_FF_F2_RR4.opus
</region>

<region>
hivel=127
key=F3
lovel=85
offset=507
sample=Cimbasso_staccatissimo_FF_F3_RR4.opus
</region>

<region>
hivel=127
key=G#1
lovel=85
offset=465
sample=Cimbasso_staccatissimo_FF_G#1_RR4.opus
</region>

<region>
hivel=127
key=G#2
lovel=85
offset=442
sample=Cimbasso_staccatissimo_FF_G#2_RR4.opus
</region>

<region>
hivel=127
key=G#3
lovel=85
offset=600
sample=Cimbasso_staccatissimo_FF_G#3_RR4.opus
</region>

<region>
hivel=127
key=G1
lovel=85
offset=1375
sample=Cimbasso_staccatissimo_FF_G1_RR4.opus
</region>

<region>
hivel=127
key=G2
lovel=85
offset=301
sample=Cimbasso_staccatissimo_FF_G2_RR4.opus
</region>

<region>
hivel=127
key=G3
lovel=85
offset=776
sample=Cimbasso_staccatissimo_FF_G3_RR4.opus
</region>

<region>
hivel=84
key=A#1
lovel=43
offset=235
sample=Cimbasso_staccatissimo_MF_A#1_RR4.opus
</region>

<region>
hivel=84
key=A#2
lovel=43
offset=93
sample=Cimbasso_staccatissimo_MF_A#2_RR4.opus
</region>

<region>
hivel=84
key=A#3
lovel=43
offset=911
sample=Cimbasso_staccatissimo_MF_A#3_RR4.opus
</region>

<region>
hivel=84
key=A1
lovel=43
offset=456
sample=Cimbasso_staccatissimo_MF_A1_RR4.opus
</region>

<region>
hivel=84
key=A2
lovel=43
sample=Cimbasso_staccatissimo_MF_A2_RR4.opus
</region>

<region>
hivel=84
key=A3
lovel=43
offset=70
sample=Cimbasso_staccatissimo_MF_A3_RR4.opus
</region>

<region>
hivel=84
key=B1
lovel=43
offset=418
sample=Cimbasso_staccatissimo_MF_B1_RR4.opus
</region>

<region>
hivel=84
key=B2
lovel=43
offset=37
sample=Cimbasso_staccatissimo_MF_B2_RR4.opus
</region>

<region>
hivel=84
key=B3
lovel=43
offset=152
sample=Cimbasso_staccatissimo_MF_B3_RR4.opus
</region>

<region>
hivel=84
key=C#2
lovel=43
sample=Cimbasso_staccatissimo_MF_C#2_RR4.opus
</region>

<region>
hivel=84
key=C#3
lovel=43
sample=Cimbasso_staccatissimo_MF_C#3_RR4.opus
</region>

<region>
hivel=84
key=C2
lovel=43
offset=454
sample=Cimbasso_staccatissimo_MF_C2_RR4.opus
</region>

<region>
hivel=84
key=C3
lovel=43
offset=23
sample=Cimbasso_staccatissimo_MF_C3_RR4.opus
</region>

<region>
hivel=84
key=C4
lovel=43
offset=242
sample=Cimbasso_staccatissimo_MF_C4_RR4.opus
</region>

<region>
hivel=84
key=D#2
lovel=43
sample=Cimbasso_staccatissimo_MF_D#2_RR4.opus
</region>

<region>
hivel=84
key=D#3
lovel=43
offset=190
sample=Cimbasso_staccatissimo_MF_D#3_RR4.opus
</region>

<region>
hivel=84
key=D2
lovel=43
offset=940
sample=Cimbasso_staccatissimo_MF_D2_RR4.opus
</region>

<region>
hivel=84
key=D3
lovel=43
offset=281
sample=Cimbasso_staccatissimo_MF_D3_RR4.opus
</region>

<region>
hivel=84
key=E1
lovel=43
offset=14
sample=Cimbasso_staccatissimo_MF_E1_RR4.opus
</region>

<region>
hivel=84
key=E2
lovel=43
offset=146
sample=Cimbasso_staccatissimo_MF_E2_RR4.opus
</region>

<region>
hivel=84
key=E3
lovel=43
sample=Cimbasso_staccatissimo_MF_E3_RR4.opus
</region>

<region>
hivel=84
key=F#1
lovel=43
offset=1358
sample=Cimbasso_staccatissimo_MF_F#1_RR4.opus
</region>

<region>
hivel=84
key=F#2
lovel=43
offset=16
sample=Cimbasso_staccatissimo_MF_F#2_RR4.opus
</region>

<region>
hivel=84
key=F#3
lovel=43
offset=87
sample=Cimbasso_staccatissimo_MF_F#3_RR4.opus
</region>

<region>
hivel=84
key=F1
lovel=43
offset=590
sample=Cimbasso_staccatissimo_MF_F1_RR4.opus
</region>

<region>
hivel=84
key=F2
lovel=43
sample=Cimbasso_staccatissimo_MF_F2_RR4.opus
</region>

<region>
hivel=84
key=F3
lovel=43
offset=98
sample=Cimbasso_staccatissimo_MF_F3_RR4.opus
</region>

<region>
hivel=84
key=G#1
lovel=43
offset=895
sample=Cimbasso_staccatissimo_MF_G#1_RR4.opus
</region>

<region>
hivel=84
key=G#2
lovel=43
sample=Cimbasso_staccatissimo_MF_G#2_RR4.opus
</region>

<region>
hivel=84
key=G#3
lovel=43
offset=483
sample=Cimbasso_staccatissimo_MF_G#3_RR4.opus
</region>

<region>
hivel=84
key=G1
lovel=43
offset=35
sample=Cimbasso_staccatissimo_MF_G1_RR4.opus
</region>

<region>
hivel=84
key=G2
lovel=43
offset=475
sample=Cimbasso_staccatissimo_MF_G2_RR4.opus
</region>

<region>
hivel=84
key=G3
lovel=43
offset=829
sample=Cimbasso_staccatissimo_MF_G3_RR4.opus
</region>

<region>
hivel=42
key=A#1
lovel=0
offset=2215
sample=Cimbasso_staccatissimo_PP_A#1_RR4.opus
</region>

<region>
hivel=42
key=A#2
lovel=0
offset=1042
sample=Cimbasso_staccatissimo_PP_A#2_RR4.opus
</region>

<region>
hivel=42
key=A#3
lovel=0
offset=884
sample=Cimbasso_staccatissimo_PP_A#3_RR4.opus
</region>

<region>
hivel=42
key=A1
lovel=0
offset=8987
sample=Cimbasso_staccatissimo_PP_A1_RR4.opus
</region>

<region>
hivel=42
key=A2
lovel=0
offset=1
sample=Cimbasso_staccatissimo_PP_A2_RR4.opus
</region>

<region>
hivel=42
key=A3
lovel=0
offset=759
sample=Cimbasso_staccatissimo_PP_A3_RR4.opus
</region>

<region>
hivel=42
key=B1
lovel=0
offset=7170
sample=Cimbasso_staccatissimo_PP_B1_RR4.opus
</region>

<region>
hivel=42
key=B2
lovel=0
offset=1008
sample=Cimbasso_staccatissimo_PP_B2_RR4.opus
</region>

<region>
hivel=42
key=B3
lovel=0
offset=79
sample=Cimbasso_staccatissimo_PP_B3_RR4.opus
</region>

<region>
hivel=42
key=C#2
lovel=0
offset=9174
sample=Cimbasso_staccatissimo_PP_C#2_RR4.opus
</region>

<region>
hivel=42
key=C#3
lovel=0
offset=419
sample=Cimbasso_staccatissimo_PP_C#3_RR4.opus
</region>

<region>
hivel=42
key=C2
lovel=0
offset=2101
sample=Cimbasso_staccatissimo_PP_C2_RR4.opus
</region>

<region>
hivel=42
key=C3
lovel=0
offset=12431
sample=Cimbasso_staccatissimo_PP_C3_RR4.opus
</region>

<region>
hivel=42
key=C4
lovel=0
sample=Cimbasso_staccatissimo_PP_C4_RR4.opus
</region>

<region>
hivel=42
key=D#2
lovel=0
offset=1407
sample=Cimbasso_staccatissimo_PP_D#2_RR4.opus
</region>

<region>
hivel=42
key=D#3
lovel=0
offset=6075
sample=Cimbasso_staccatissimo_PP_D#3_RR4.opus
</region>

<region>
hivel=42
key=D2
lovel=0
offset=656
sample=Cimbasso_staccatissimo_PP_D2_RR4.opus
</region>

<region>
hivel=42
key=D3
lovel=0
offset=714
sample=Cimbasso_staccatissimo_PP_D3_RR4.opus
</region>

<region>
hivel=42
key=E1
lovel=0
offset=11784
sample=Cimbasso_staccatissimo_PP_E1_RR4.opus
</region>

<region>
hivel=42
key=E2
lovel=0
offset=129
sample=Cimbasso_staccatissimo_PP_E2_RR4.opus
</region>

<region>
hivel=42
key=E3
lovel=0
offset=8314
sample=Cimbasso_staccatissimo_PP_E3_RR4.opus
</region>

<region>
hivel=42
key=F#1
lovel=0
offset=9954
sample=Cimbasso_staccatissimo_PP_F#1_RR4.opus
</region>

<region>
hivel=42
key=F#2
lovel=0
offset=10130
sample=Cimbasso_staccatissimo_PP_F#2_RR4.opus
</region>

<region>
hivel=42
key=F#3
lovel=0
offset=583
sample=Cimbasso_staccatissimo_PP_F#3_RR4.opus
</region>

<region>
hivel=42
key=F1
lovel=0
offset=8834
sample=Cimbasso_staccatissimo_PP_F1_RR4.opus
</region>

<region>
hivel=42
key=F2
lovel=0
offset=9101
sample=Cimbasso_staccatissimo_PP_F2_RR4.opus
</region>

<region>
hivel=42
key=F3
lovel=0
offset=130
sample=Cimbasso_staccatissimo_PP_F3_RR4.opus
</region>

<region>
hivel=42
key=G#1
lovel=0
offset=12743
sample=Cimbasso_staccatissimo_PP_G#1_RR4.opus
</region>

<region>
hivel=42
key=G#2
lovel=0
offset=1146
sample=Cimbasso_staccatissimo_PP_G#2_RR4.opus
</region>

<region>
hivel=42
key=G#3
lovel=0
offset=207
sample=Cimbasso_staccatissimo_PP_G#3_RR4.opus
</region>

<region>
hivel=42
key=G1
lovel=0
offset=11963
sample=Cimbasso_staccatissimo_PP_G1_RR4.opus
</region>

<region>
hivel=42
key=G2
lovel=0
offset=512
sample=Cimbasso_staccatissimo_PP_G2_RR4.opus
</region>

<region>
hivel=42
key=G3
lovel=0
offset=9780
sample=Cimbasso_staccatissimo_PP_G3_RR4.opus
</region>
</group>

<group>
group_label=RR5
seq_length=8
seq_position=5

<region>
hivel=127
key=A#1
lovel=85
offset=589
sample=Cimbasso_staccatissimo_FF_A#1_RR5.opus
</region>

<region>
hivel=127
key=A#2
lovel=85
offset=99
sample=Cimbasso_staccatissimo_FF_A#2_RR5.opus
</region>

<region>
hivel=127
key=A#3
lovel=85
offset=586
sample=Cimbasso_staccatissimo_FF_A#3_RR5.opus
</region>

<region>
hivel=127
key=A1
lovel=85
offset=623
sample=Cimbasso_staccatissimo_FF_A1_RR5.opus
</region>

<region>
hivel=127
key=A2
lovel=85
offset=931
sample=Cimbasso_staccatissimo_FF_A2_RR5.opus
</region>

<region>
hivel=127
key=A3
lovel=85
offset=290
sample=Cimbasso_staccatissimo_FF_A3_RR5.opus
</region>

<region>
hivel=127
key=B1
lovel=85
offset=77
sample=Cimbasso_staccatissimo_FF_B1_RR5.opus
</region>

<region>
hivel=127
key=B2
lovel=85
sample=Cimbasso_staccatissimo_FF_B2_RR5.opus
</region>

<region>
hivel=127
key=B3
lovel=85
sample=Cimbasso_staccatissimo_FF_B3_RR5.opus
</region>

<region>
hivel=127
key=C#2
lovel=85
offset=649
sample=Cimbasso_staccatissimo_FF_C#2_RR5.opus
</region>

<region>
hivel=127
key=C#3
lovel=85
offset=583
sample=Cimbasso_staccatissimo_FF_C#3_RR5.opus
</region>

<region>
hivel=127
key=C2
lovel=85
offset=802
sample=Cimbasso_staccatissimo_FF_C2_RR5.opus
</region>

<region>
hivel=127
key=C3
lovel=85
sample=Cimbasso_staccatissimo_FF_C3_RR5.opus
</region>

<region>
hivel=127
key=C4
lovel=85
offset=293
sample=Cimbasso_staccatissimo_FF_C4_RR5.opus
</region>

<region>
hivel=127
key=D#2
lovel=85
offset=293
sample=Cimbasso_staccatissimo_FF_D#2_RR5.opus
</region>

<region>
hivel=127
key=D#3
lovel=85
sample=Cimbasso_staccatissimo_FF_D#3_RR5.opus
</region>

<region>
hivel=127
key=D2
lovel=85
sample=Cimbasso_staccatissimo_FF_D2_RR5.opus
</region>

<region>
hivel=127
key=D3
lovel=85
sample=Cimbasso_staccatissimo_FF_D3_RR5.opus
</region>

<region>
hivel=127
key=E1
lovel=85
offset=84
sample=Cimbasso_staccatissimo_FF_E1_RR5.opus
</region>

<region>
hivel=127
key=E2
lovel=85
offset=245
sample=Cimbasso_staccatissimo_FF_E2_RR5.opus
</region>

<region>
hivel=127
key=E3
lovel=85
offset=409
sample=Cimbasso_staccatissimo_FF_E3_RR5.opus
</region>

<region>
hivel=127
key=F#1
lovel=85
offset=1074
sample=Cimbasso_staccatissimo_FF_F#1_RR5.opus
</region>

<region>
hivel=127
key=F#2
lovel=85
offset=60
sample=Cimbasso_staccatissimo_FF_F#2_RR5.opus
</region>

<region>
hivel=127
key=F#3
lovel=85
offset=212
sample=Cimbasso_staccatissimo_FF_F#3_RR5.opus
</region>

<region>
hivel=127
key=F1
lovel=85
offset=230
sample=Cimbasso_staccatissimo_FF_F1_RR5.opus
</region>

<region>
hivel=127
key=F2
lovel=85
offset=20
sample=Cimbasso_staccatissimo_FF_F2_RR5.opus
</region>

<region>
hivel=127
key=F3
lovel=85
offset=502
sample=Cimbasso_staccatissimo_FF_F3_RR5.opus
</region>

<region>
hivel=127
key=G#1
lovel=85
offset=449
sample=Cimbasso_staccatissimo_FF_G#1_RR5.opus
</region>

<region>
hivel=127
key=G#2
lovel=85
offset=453
sample=Cimbasso_staccatissimo_FF_G#2_RR5.opus
</region>

<region>
hivel=127
key=G#3
lovel=85
offset=1059
sample=Cimbasso_staccatissimo_FF_G#3_RR5.opus
</region>

<region>
hivel=127
key=G1
lovel=85
offset=515
sample=Cimbasso_staccatissimo_FF_G1_RR5.opus
</region>

<region>
hivel=127
key=G2
lovel=85
offset=476
sample=Cimbasso_staccatissimo_FF_G2_RR5.opus
</region>

<region>
hivel=127
key=G3
lovel=85
offset=895
sample=Cimbasso_staccatissimo_FF_G3_RR5.opus
</region>

<region>
hivel=84
key=A#1
lovel=43
offset=77
sample=Cimbasso_staccatissimo_MF_A#1_RR5.opus
</region>

<region>
hivel=84
key=A#2
lovel=43
sample=Cimbasso_staccatissimo_MF_A#2_RR5.opus
</region>

<region>
hivel=84
key=A#3
lovel=43
offset=383
sample=Cimbasso_staccatissimo_MF_A#3_RR5.opus
</region>

<region>
hivel=84
key=A1
lovel=43
offset=708
sample=Cimbasso_staccatissimo_MF_A1_RR5.opus
</region>

<region>
hivel=84
key=A2
lovel=43
sample=Cimbasso_staccatissimo_MF_A2_RR5.opus
</region>

<region>
hivel=84
key=A3
lovel=43
offset=58
sample=Cimbasso_staccatissimo_MF_A3_RR5.opus
</region>

<region>
hivel=84
key=B1
lovel=43
sample=Cimbasso_staccatissimo_MF_B1_RR5.opus
</region>

<region>
hivel=84
key=B2
lovel=43
offset=96
sample=Cimbasso_staccatissimo_MF_B2_RR5.opus
</region>

<region>
hivel=84
key=B3
lovel=43
offset=293
sample=Cimbasso_staccatissimo_MF_B3_RR5.opus
</region>

<region>
hivel=84
key=C#2
lovel=43
offset=219
sample=Cimbasso_staccatissimo_MF_C#2_RR5.opus
</region>

<region>
hivel=84
key=C#3
lovel=43
offset=73
sample=Cimbasso_staccatissimo_MF_C#3_RR5.opus
</region>

<region>
hivel=84
key=C2
lovel=43
offset=599
sample=Cimbasso_staccatissimo_MF_C2_RR5.opus
</region>

<region>
hivel=84
key=C3
lovel=43
offset=426
sample=Cimbasso_staccatissimo_MF_C3_RR5.opus
</region>

<region>
hivel=84
key=C4
lovel=43
offset=663
sample=Cimbasso_staccatissimo_MF_C4_RR5.opus
</region>

<region>
hivel=84
key=D#2
lovel=43
sample=Cimbasso_staccatissimo_MF_D#2_RR5.opus
</region>

<region>
hivel=84
key=D#3
lovel=43
offset=230
sample=Cimbasso_staccatissimo_MF_D#3_RR5.opus
</region>

<region>
hivel=84
key=D2
lovel=43
offset=410
sample=Cimbasso_staccatissimo_MF_D2_RR5.opus
</region>

<region>
hivel=84
key=D3
lovel=43
offset=279
sample=Cimbasso_staccatissimo_MF_D3_RR5.opus
</region>

<region>
hivel=84
key=E1
lovel=43
offset=354
sample=Cimbasso_staccatissimo_MF_E1_RR5.opus
</region>

<region>
hivel=84
key=E2
lovel=43
sample=Cimbasso_staccatissimo_MF_E2_RR5.opus
</region>

<region>
hivel=84
key=E3
lovel=43
sample=Cimbasso_staccatissimo_MF_E3_RR5.opus
</region>

<region>
hivel=84
key=F#1
lovel=43
offset=559
sample=Cimbasso_staccatissimo_MF_F#1_RR5.opus
</region>

<region>
hivel=84
key=F#2
lovel=43
offset=39
sample=Cimbasso_staccatissimo_MF_F#2_RR5.opus
</region>

<region>
hivel=84
key=F#3
lovel=43
offset=592
sample=Cimbasso_staccatissimo_MF_F#3_RR5.opus
</region>

<region>
hivel=84
key=F1
lovel=43
offset=1216
sample=Cimbasso_staccatissimo_MF_F1_RR5.opus
</region>

<region>
hivel=84
key=F2
lovel=43
offset=89
sample=Cimbasso_staccatissimo_MF_F2_RR5.opus
</region>

<region>
hivel=84
key=F3
lovel=43
sample=Cimbasso_staccatissimo_MF_F3_RR5.opus
</region>

<region>
hivel=84
key=G#1
lovel=43
sample=Cimbasso_staccatissimo_MF_G#1_RR5.opus
</region>

<region>
hivel=84
key=G#2
lovel=43
offset=3
sample=Cimbasso_staccatissimo_MF_G#2_RR5.opus
</region>

<region>
hivel=84
key=G#3
lovel=43
offset=388
sample=Cimbasso_staccatissimo_MF_G#3_RR5.opus
</region>

<region>
hivel=84
key=G1
lovel=43
offset=126
sample=Cimbasso_staccatissimo_MF_G1_RR5.opus
</region>

<region>
hivel=84
key=G2
lovel=43
offset=30
sample=Cimbasso_staccatissimo_MF_G2_RR5.opus
</region>

<region>
hivel=84
key=G3
lovel=43
offset=584
sample=Cimbasso_staccatissimo_MF_G3_RR5.opus
</region>

<region>
hivel=42
key=A#1
lovel=0
offset=2205
sample=Cimbasso_staccatissimo_PP_A#1_RR5.opus
</region>

<region>
hivel=42
key=A#2
lovel=0
offset=484
sample=Cimbasso_staccatissimo_PP_A#2_RR5.opus
</region>

<region>
hivel=42
key=A#3
lovel=0
offset=169
sample=Cimbasso_staccatissimo_PP_A#3_RR5.opus
</region>

<region>
hivel=42
key=A1
lovel=0
offset=13309
sample=Cimbasso_staccatissimo_PP_A1_RR5.opus
</region>

<region>
hivel=42
key=A2
lovel=0
offset=1046
sample=Cimbasso_staccatissimo_PP_A2_RR5.opus
</region>

<region>
hivel=42
key=A3
lovel=0
offset=83
sample=Cimbasso_staccatissimo_PP_A3_RR5.opus
</region>

<region>
hivel=42
key=B1
lovel=0
offset=1695
sample=Cimbasso_staccatissimo_PP_B1_RR5.opus
</region>

<region>
hivel=42
key=B2
lovel=0
offset=602
sample=Cimbasso_staccatissimo_PP_B2_RR5.opus
</region>

<region>
hivel=42
key=B3
lovel=0
offset=71
sample=Cimbasso_staccatissimo_PP_B3_RR5.opus
</region>

<region>
hivel=42
key=C#2
lovel=0
offset=12720
sample=Cimbasso_staccatissimo_PP_C#2_RR5.opus
</region>

<region>
hivel=42
key=C#3
lovel=0
offset=10639
sample=Cimbasso_staccatissimo_PP_C#3_RR5.opus
</region>

<region>
hivel=42
key=C2
lovel=0
offset=12959
sample=Cimbasso_staccatissimo_PP_C2_RR5.opus
</region>

<region>
hivel=42
key=C3
lovel=0
offset=7672
sample=Cimbasso_staccatissimo_PP_C3_RR5.opus
</region>

<region>
hivel=42
key=C4
lovel=0
offset=72
sample=Cimbasso_staccatissimo_PP_C4_RR5.opus
</region>

<region>
hivel=42
key=D#2
lovel=0
offset=13178
sample=Cimbasso_staccatissimo_PP_D#2_RR5.opus
</region>

<region>
hivel=42
key=D#3
lovel=0
offset=451
sample=Cimbasso_staccatissimo_PP_D#3_RR5.opus
</region>

<region>
hivel=42
key=D2
lovel=0
offset=8245
sample=Cimbasso_staccatissimo_PP_D2_RR5.opus
</region>

<region>
hivel=42
key=D3
lovel=0
offset=277
sample=Cimbasso_staccatissimo_PP_D3_RR5.opus
</region>

<region>
hivel=42
key=E1
lovel=0
offset=8962
sample=Cimbasso_staccatissimo_PP_E1_RR5.opus
</region>

<region>
hivel=42
key=E2
lovel=0
offset=11113
sample=Cimbasso_staccatissimo_PP_E2_RR5.opus
</region>

<region>
hivel=42
key=E3
lovel=0
offset=11105
sample=Cimbasso_staccatissimo_PP_E3_RR5.opus
</region>

<region>
hivel=42
key=F#1
lovel=0
offset=10827
sample=Cimbasso_staccatissimo_PP_F#1_RR5.opus
</region>

<region>
hivel=42
key=F#2
lovel=0
offset=2285
sample=Cimbasso_staccatissimo_PP_F#2_RR5.opus
</region>

<region>
hivel=42
key=F#3
lovel=0
offset=317
sample=Cimbasso_staccatissimo_PP_F#3_RR5.opus
</region>

<region>
hivel=42
key=F1
lovel=0
offset=13096
sample=Cimbasso_staccatissimo_PP_F1_RR5.opus
</region>

<region>
hivel=42
key=F2
lovel=0
offset=9989
sample=Cimbasso_staccatissimo_PP_F2_RR5.opus
</region>

<region>
hivel=42
key=F3
lovel=0
offset=84
sample=Cimbasso_staccatissimo_PP_F3_RR5.opus
</region>

<region>
hivel=42
key=G#1
lovel=0
offset=12386
sample=Cimbasso_staccatissimo_PP_G#1_RR5.opus
</region>

<region>
hivel=42
key=G#2
lovel=0
offset=3234
sample=Cimbasso_staccatissimo_PP_G#2_RR5.opus
</region>

<region>
hivel=42
key=G#3
lovel=0
offset=851
sample=Cimbasso_staccatissimo_PP_G#3_RR5.opus
</region>

<region>
hivel=42
key=G1
lovel=0
offset=10911
sample=Cimbasso_staccatissimo_PP_G1_RR5.opus
</region>

<region>
hivel=42
key=G2
lovel=0
offset=3411
sample=Cimbasso_staccatissimo_PP_G2_RR5.opus
</region>

<region>
hivel=42
key=G3
lovel=0
offset=276
sample=Cimbasso_staccatissimo_PP_G3_RR5.opus
</region>
</group>

<group>
group_label=RR6
seq_length=8
seq_position=6

<region>
hivel=127
key=A#1
lovel=85
offset=567
sample=Cimbasso_staccatissimo_FF_A#1_RR6.opus
</region>

<region>
hivel=127
key=A#2
lovel=85
offset=101
sample=Cimbasso_staccatissimo_FF_A#2_RR6.opus
</region>

<region>
hivel=127
key=A#3
lovel=85
offset=744
sample=Cimbasso_staccatissimo_FF_A#3_RR6.opus
</region>

<region>
hivel=127
key=A1
lovel=85
offset=940
sample=Cimbasso_staccatissimo_FF_A1_RR6.opus
</region>

<region>
hivel=127
key=A2
lovel=85
sample=Cimbasso_staccatissimo_FF_A2_RR6.opus
</region>

<region>
hivel=127
key=A3
lovel=85
offset=551
sample=Cimbasso_staccatissimo_FF_A3_RR6.opus
</region>

<region>
hivel=127
key=B1
lovel=85
offset=467
sample=Cimbasso_staccatissimo_FF_B1_RR6.opus
</region>

<region>
hivel=127
key=B2
lovel=85
offset=76
sample=Cimbasso_staccatissimo_FF_B2_RR6.opus
</region>

<region>
hivel=127
key=B3
lovel=85
offset=291
sample=Cimbasso_staccatissimo_FF_B3_RR6.opus
</region>

<region>
hivel=127
key=C#2
lovel=85
offset=1095
sample=Cimbasso_staccatissimo_FF_C#2_RR6.opus
</region>

<region>
hivel=127
key=C#3
lovel=85
offset=322
sample=Cimbasso_staccatissimo_FF_C#3_RR6.opus
</region>

<region>
hivel=127
key=C2
lovel=85
offset=742
sample=Cimbasso_staccatissimo_FF_C2_RR6.opus
</region>

<region>
hivel=127
key=C3
lovel=85
offset=47
sample=Cimbasso_staccatissimo_FF_C3_RR6.opus
</region>

<region>
hivel=127
key=C4
lovel=85
offset=1374
sample=Cimbasso_staccatissimo_FF_C4_RR6.opus
</region>

<region>
hivel=127
key=D#2
lovel=85
offset=806
sample=Cimbasso_staccatissimo_FF_D#2_RR6.opus
</region>

<region>
hivel=127
key=D#3
lovel=85
offset=148
sample=Cimbasso_staccatissimo_FF_D#3_RR6.opus
</region>

<region>
hivel=127
key=D2
lovel=85
offset=1158
sample=Cimbasso_staccatissimo_FF_D2_RR6.opus
</region>

<region>
hivel=127
key=D3
lovel=85
offset=465
sample=Cimbasso_staccatissimo_FF_D3_RR6.opus
</region>

<region>
hivel=127
key=E1
lovel=85
offset=717
sample=Cimbasso_staccatissimo_FF_E1_RR6.opus
</region>

<region>
hivel=127
key=E2
lovel=85
offset=578
sample=Cimbasso_staccatissimo_FF_E2_RR6.opus
</region>

<region>
hivel=127
key=E3
lovel=85
offset=424
sample=Cimbasso_staccatissimo_FF_E3_RR6.opus
</region>

<region>
hivel=127
key=F#1
lovel=85
offset=700
sample=Cimbasso_staccatissimo_FF_F#1_RR6.opus
</region>

<region>
hivel=127
key=F#2
lovel=85
offset=617
sample=Cimbasso_staccatissimo_FF_F#2_RR6.opus
</region>

<region>
hivel=127
key=F#3
lovel=85
offset=89
sample=Cimbasso_staccatissimo_FF_F#3_RR6.opus
</region>

<region>
hivel=127
key=F1
lovel=85
sample=Cimbasso_staccatissimo_FF_F1_RR6.opus
</region>

<region>
hivel=127
key=F2
lovel=85
offset=6
sample=Cimbasso_staccatissimo_FF_F2_RR6.opus
</region>

<region>
hivel=127
key=F3
lovel=85
offset=496
sample=Cimbasso_staccatissimo_FF_F3_RR6.opus
</region>

<region>
hivel=127
key=G#1
lovel=85
offset=713
sample=Cimbasso_staccatissimo_FF_G#1_RR6.opus
</region>

<region>
hivel=127
key=G#2
lovel=85
offset=4
sample=Cimbasso_staccatissimo_FF_G#2_RR6.opus
</region>

<region>
hivel=127
key=G#3
lovel=85
offset=721
sample=Cimbasso_staccatissimo_FF_G#3_RR6.opus
</region>

<region>
hivel=127
key=G1
lovel=85
offset=773
sample=Cimbasso_staccatissimo_FF_G1_RR6.opus
</region>

<region>
hivel=127
key=G2
lovel=85
offset=29
sample=Cimbasso_staccatissimo_FF_G2_RR6.opus
</region>

<region>
hivel=127
key=G3
lovel=85
offset=542
sample=Cimbasso_staccatissimo_FF_G3_RR6.opus
</region>

<region>
hivel=84
key=A#1
lovel=43
offset=2237
sample=Cimbasso_staccatissimo_MF_A#1_RR6.opus
</region>

<region>
hivel=84
key=A#2
lovel=43
offset=370
sample=Cimbasso_staccatissimo_MF_A#2_RR6.opus
</region>

<region>
hivel=84
key=A#3
lovel=43
offset=905
sample=Cimbasso_staccatissimo_MF_A#3_RR6.opus
</region>

<region>
hivel=84
key=A1
lovel=43
offset=384
sample=Cimbasso_staccatissimo_MF_A1_RR6.opus
</region>

<region>
hivel=84
key=A2
lovel=43
offset=413
sample=Cimbasso_staccatissimo_MF_A2_RR6.opus
</region>

<region>
hivel=84
key=A3
lovel=43
offset=65
sample=Cimbasso_staccatissimo_MF_A3_RR6.opus
</region>

<region>
hivel=84
key=B1
lovel=43
sample=Cimbasso_staccatissimo_MF_B1_RR6.opus
</region>

<region>
hivel=84
key=B2
lovel=43
offset=26
sample=Cimbasso_staccatissimo_MF_B2_RR6.opus
</region>

<region>
hivel=84
key=B3
lovel=43
offset=300
sample=Cimbasso_staccatissimo_MF_B3_RR6.opus
</region>

<region>
hivel=84
key=C#2
lovel=43
offset=122
sample=Cimbasso_staccatissimo_MF_C#2_RR6.opus
</region>

<region>
hivel=84
key=C#3
lovel=43
offset=317
sample=Cimbasso_staccatissimo_MF_C#3_RR6.opus
</region>

<region>
hivel=84
key=C2
lovel=43
offset=153
sample=Cimbasso_staccatissimo_MF_C2_RR6.opus
</region>

<region>
hivel=84
key=C3
lovel=43
offset=45
sample=Cimbasso_staccatissimo_MF_C3_RR6.opus
</region>

<region>
hivel=84
key=C4
lovel=43
offset=449
sample=Cimbasso_staccatissimo_MF_C4_RR6.opus
</region>

<region>
hivel=84
key=D#2
lovel=43
sample=Cimbasso_staccatissimo_MF_D#2_RR6.opus
</region>

<region>
hivel=84
key=D#3
lovel=43
offset=198
sample=Cimbasso_staccatissimo_MF_D#3_RR6.opus
</region>

<region>
hivel=84
key=D2
lovel=43
sample=Cimbasso_staccatissimo_MF_D2_RR6.opus
</region>

<region>
hivel=84
key=D3
lovel=43
sample=Cimbasso_staccatissimo_MF_D3_RR6.opus
</region>

<region>
hivel=84
key=E1
lovel=43
sample=Cimbasso_staccatissimo_MF_E1_RR6.opus
</region>

<region>
hivel=84
key=E2
lovel=43
offset=94
sample=Cimbasso_staccatissimo_MF_E2_RR6.opus
</region>

<region>
hivel=84
key=E3
lovel=43
sample=Cimbasso_staccatissimo_MF_E3_RR6.opus
</region>

<region>
hivel=84
key=F#1
lovel=43
offset=345
sample=Cimbasso_staccatissimo_MF_F#1_RR6.opus
</region>

<region>
hivel=84
key=F#2
lovel=43
sample=Cimbasso_staccatissimo_MF_F#2_RR6.opus
</region>

<region>
hivel=84
key=F#3
lovel=43
sample=Cimbasso_staccatissimo_MF_F#3_RR6.opus
</region>

<region>
hivel=84
key=F1
lovel=43
sample=Cimbasso_staccatissimo_MF_F1_RR6.opus
</region>

<region>
hivel=84
key=F2
lovel=43
offset=68
sample=Cimbasso_staccatissimo_MF_F2_RR6.opus
</region>

<region>
hivel=84
key=F3
lovel=43
sample=Cimbasso_staccatissimo_MF_F3_RR6.opus
</region>

<region>
hivel=84
key=G#1
lovel=43
offset=450
sample=Cimbasso_staccatissimo_MF_G#1_RR6.opus
</region>

<region>
hivel=84
key=G#2
lovel=43
sample=Cimbasso_staccatissimo_MF_G#2_RR6.opus
</region>

<region>
hivel=84
key=G#3
lovel=43
offset=386
sample=Cimbasso_staccatissimo_MF_G#3_RR6.opus
</region>

<region>
hivel=84
key=G1
lovel=43
offset=447
sample=Cimbasso_staccatissimo_MF_G1_RR6.opus
</region>

<region>
hivel=84
key=G2
lovel=43
offset=25
sample=Cimbasso_staccatissimo_MF_G2_RR6.opus
</region>

<region>
hivel=84
key=G3
lovel=43
offset=416
sample=Cimbasso_staccatissimo_MF_G3_RR6.opus
</region>

<region>
hivel=42
key=A#1
lovel=0
offset=3194
sample=Cimbasso_staccatissimo_PP_A#1_RR6.opus
</region>

<region>
hivel=42
key=A#2
lovel=0
offset=1294
sample=Cimbasso_staccatissimo_PP_A#2_RR6.opus
</region>

<region>
hivel=42
key=A#3
lovel=0
sample=Cimbasso_staccatissimo_PP_A#3_RR6.opus
</region>

<region>
hivel=42
key=A1
lovel=0
offset=13632
sample=Cimbasso_staccatissimo_PP_A1_RR6.opus
</region>

<region>
hivel=42
key=A2
lovel=0
offset=386
sample=Cimbasso_staccatissimo_PP_A2_RR6.opus
</region>

<region>
hivel=42
key=A3
lovel=0
offset=450
sample=Cimbasso_staccatissimo_PP_A3_RR6.opus
</region>

<region>
hivel=42
key=B1
lovel=0
offset=8897
sample=Cimbasso_staccatissimo_PP_B1_RR6.opus
</region>

<region>
hivel=42
key=B2
lovel=0
offset=770
sample=Cimbasso_staccatissimo_PP_B2_RR6.opus
</region>

<region>
hivel=42
key=B3
lovel=0
offset=60
sample=Cimbasso_staccatissimo_PP_B3_RR6.opus
</region>

<region>
hivel=42
key=C#2
lovel=0
offset=12817
sample=Cimbasso_staccatissimo_PP_C#2_RR6.opus
</region>

<region>
hivel=42
key=C#3
lovel=0
offset=676
sample=Cimbasso_staccatissimo_PP_C#3_RR6.opus
</region>

<region>
hivel=42
key=C2
lovel=0
offset=8249
sample=Cimbasso_staccatissimo_PP_C2_RR6.opus
</region>

<region>
hivel=42
key=C3
lovel=0
offset=814
sample=Cimbasso_staccatissimo_PP_C3_RR6.opus
</region>

<region>
hivel=42
key=C4
lovel=0
offset=95
sample=Cimbasso_staccatissimo_PP_C4_RR6.opus
</region>

<region>
hivel=42
key=D#2
lovel=0
offset=8324
sample=Cimbasso_staccatissimo_PP_D#2_RR6.opus
</region>

<region>
hivel=42
key=D#3
lovel=0
offset=10574
sample=Cimbasso_staccatissimo_PP_D#3_RR6.opus
</region>

<region>
hivel=42
key=D2
lovel=0
sample=Cimbasso_staccatissimo_PP_D2_RR6.opus
</region>

<region>
hivel=42
key=D3
lovel=0
sample=Cimbasso_staccatissimo_PP_D3_RR6.opus
</region>

<region>
hivel=42
key=E1
lovel=0
offset=11651
sample=Cimbasso_staccatissimo_PP_E1_RR6.opus
</region>

<region>
hivel=42
key=E2
lovel=0
offset=10248
sample=Cimbasso_staccatissimo_PP_E2_RR6.opus
</region>

<region>
hivel=42
key=E3
lovel=0
offset=9150
sample=Cimbasso_staccatissimo_PP_E3_RR6.opus
</region>

<region>
hivel=42
key=F#1
lovel=0
offset=11545
sample=Cimbasso_staccatissimo_PP_F#1_RR6.opus
</region>

<region>
hivel=42
key=F#2
lovel=0
offset=4202
sample=Cimbasso_staccatissimo_PP_F#2_RR6.opus
</region>

<region>
hivel=42
key=F#3
lovel=0
offset=11774
sample=Cimbasso_staccatissimo_PP_F#3_RR6.opus
</region>

<region>
hivel=42
key=F1
lovel=0
offset=8480
sample=Cimbasso_staccatissimo_PP_F1_RR6.opus
</region>

<region>
hivel=42
key=F2
lovel=0
offset=1947
sample=Cimbasso_staccatissimo_PP_F2_RR6.opus
</region>

<region>
hivel=42
key=F3
lovel=0
sample=Cimbasso_staccatissimo_PP_F3_RR6.opus
</region>

<region>
hivel=42
key=G#1
lovel=0
offset=11736
sample=Cimbasso_staccatissimo_PP_G#1_RR6.opus
</region>

<region>
hivel=42
key=G#2
lovel=0
offset=10492
sample=Cimbasso_staccatissimo_PP_G#2_RR6.opus
</region>

<region>
hivel=42
key=G#3
lovel=0
offset=91
sample=Cimbasso_staccatissimo_PP_G#3_RR6.opus
</region>

<region>
hivel=42
key=G1
lovel=0
offset=9336
sample=Cimbasso_staccatissimo_PP_G1_RR6.opus
</region>

<region>
hivel=42
key=G2
lovel=0
offset=9582
sample=Cimbasso_staccatissimo_PP_G2_RR6.opus
</region>

<region>
hivel=42
key=G3
lovel=0
offset=328
sample=Cimbasso_staccatissimo_PP_G3_RR6.opus
</region>
</group>

<group>
group_label=RR7
seq_length=8
seq_position=7

<region>
hivel=127
key=A#1
lovel=85
offset=594
sample=Cimbasso_staccatissimo_FF_A#1_RR7.opus
</region>

<region>
hivel=127
key=A#2
lovel=85
offset=391
sample=Cimbasso_staccatissimo_FF_A#2_RR7.opus
</region>

<region>
hivel=127
key=A#3
lovel=85
offset=774
sample=Cimbasso_staccatissimo_FF_A#3_RR7.opus
</region>

<region>
hivel=127
key=A1
lovel=85
offset=1283
sample=Cimbasso_staccatissimo_FF_A1_RR7.opus
</region>

<region>
hivel=127
key=A2
lovel=85
offset=120
sample=Cimbasso_staccatissimo_FF_A2_RR7.opus
</region>

<region>
hivel=127
key=A3
lovel=85
offset=576
sample=Cimbasso_staccatissimo_FF_A3_RR7.opus
</region>

<region>
hivel=127
key=B1
lovel=85
offset=439
sample=Cimbasso_staccatissimo_FF_B1_RR7.opus
</region>

<region>
hivel=127
key=B2
lovel=85
offset=56
sample=Cimbasso_staccatissimo_FF_B2_RR7.opus
</region>

<region>
hivel=127
key=B3
lovel=85
offset=78
sample=Cimbasso_staccatissimo_FF_B3_RR7.opus
</region>

<region>
hivel=127
key=C#2
lovel=85
offset=234
sample=Cimbasso_staccatissimo_FF_C#2_RR7.opus
</region>

<region>
hivel=127
key=C#3
lovel=85
offset=283
sample=Cimbasso_staccatissimo_FF_C#3_RR7.opus
</region>

<region>
hivel=127
key=C2
lovel=85
offset=282
sample=Cimbasso_staccatissimo_FF_C2_RR7.opus
</region>

<region>
hivel=127
key=C3
lovel=85
sample=Cimbasso_staccatissimo_FF_C3_RR7.opus
</region>

<region>
hivel=127
key=C4
lovel=85
offset=224
sample=Cimbasso_staccatissimo_FF_C4_RR7.opus
</region>

<region>
hivel=127
key=D#2
lovel=85
offset=633
sample=Cimbasso_staccatissimo_FF_D#2_RR7.opus
</region>

<region>
hivel=127
key=D#3
lovel=85
sample=Cimbasso_staccatissimo_FF_D#3_RR7.opus
</region>

<region>
hivel=127
key=D2
lovel=85
offset=497
sample=Cimbasso_staccatissimo_FF_D2_RR7.opus
</region>

<region>
hivel=127
key=D3
lovel=85
offset=303
sample=Cimbasso_staccatissimo_FF_D3_RR7.opus
</region>

<region>
hivel=127
key=E1
lovel=85
offset=387
sample=Cimbasso_staccatissimo_FF_E1_RR7.opus
</region>

<region>
hivel=127
key=E2
lovel=85
offset=554
sample=Cimbasso_staccatissimo_FF_E2_RR7.opus
</region>

<region>
hivel=127
key=E3
lovel=85
offset=291
sample=Cimbasso_staccatissimo_FF_E3_RR7.opus
</region>

<region>
hivel=127
key=F#1
lovel=85
offset=885
sample=Cimbasso_staccatissimo_FF_F#1_RR7.opus
</region>

<region>
hivel=127
key=F#2
lovel=85
offset=233
sample=Cimbasso_staccatissimo_FF_F#2_RR7.opus
</region>

<region>
hivel=127
key=F#3
lovel=85
offset=495
sample=Cimbasso_staccatissimo_FF_F#3_RR7.opus
</region>

<region>
hivel=127
key=F1
lovel=85
offset=53
sample=Cimbasso_staccatissimo_FF_F1_RR7.opus
</region>

<region>
hivel=127
key=F2
lovel=85
offset=448
sample=Cimbasso_staccatissimo_FF_F2_RR7.opus
</region>

<region>
hivel=127
key=F3
lovel=85
offset=494
sample=Cimbasso_staccatissimo_FF_F3_RR7.opus
</region>

<region>
hivel=127
key=G#1
lovel=85
offset=110
sample=Cimbasso_staccatissimo_FF_G#1_RR7.opus
</region>

<region>
hivel=127
key=G#2
lovel=85
offset=453
sample=Cimbasso_staccatissimo_FF_G#2_RR7.opus
</region>

<region>
hivel=127
key=G#3
lovel=85
offset=1011
sample=Cimbasso_staccatissimo_FF_G#3_RR7.opus
</region>

<region>
hivel=127
key=G1
lovel=85
offset=690
sample=Cimbasso_staccatissimo_FF_G1_RR7.opus
</region>

<region>
hivel=127
key=G2
lovel=85
offset=39
sample=Cimbasso_staccatissimo_FF_G2_RR7.opus
</region>

<region>
hivel=127
key=G3
lovel=85
offset=702
sample=Cimbasso_staccatissimo_FF_G3_RR7.opus
</region>

<region>
hivel=84
key=A#1
lovel=43
offset=373
sample=Cimbasso_staccatissimo_MF_A#1_RR7.opus
</region>

<region>
hivel=84
key=A#2
lovel=43
sample=Cimbasso_staccatissimo_MF_A#2_RR7.opus
</region>

<region>
hivel=84
key=A#3
lovel=43
offset=695
sample=Cimbasso_staccatissimo_MF_A#3_RR7.opus
</region>

<region>
hivel=84
key=A1
lovel=43
offset=585
sample=Cimbasso_staccatissimo_MF_A1_RR7.opus
</region>

<region>
hivel=84
key=A2
lovel=43
sample=Cimbasso_staccatissimo_MF_A2_RR7.opus
</region>

<region>
hivel=84
key=A3
lovel=43
offset=72
sample=Cimbasso_staccatissimo_MF_A3_RR7.opus
</region>

<region>
hivel=84
key=B1
lovel=43
offset=277
sample=Cimbasso_staccatissimo_MF_B1_RR7.opus
</region>

<region>
hivel=84
key=B2
lovel=43
offset=384
sample=Cimbasso_staccatissimo_MF_B2_RR7.opus
</region>

<region>
hivel=84
key=B3
lovel=43
offset=311
sample=Cimbasso_staccatissimo_MF_B3_RR7.opus
</region>

<region>
hivel=84
key=C#2
lovel=43
offset=343
sample=Cimbasso_staccatissimo_MF_C#2_RR7.opus
</region>

<region>
hivel=84
key=C#3
lovel=43
sample=Cimbasso_staccatissimo_MF_C#3_RR7.opus
</region>

<region>
hivel=84
key=C2
lovel=43
offset=217
sample=Cimbasso_staccatissimo_MF_C2_RR7.opus
</region>

<region>
hivel=84
key=C3
lovel=43
offset=507
sample=Cimbasso_staccatissimo_MF_C3_RR7.opus
</region>

<region>
hivel=84
key=C4
lovel=43
offset=455
sample=Cimbasso_staccatissimo_MF_C4_RR7.opus
</region>

<region>
hivel=84
key=D#2
lovel=43
offset=420
sample=Cimbasso_staccatissimo_MF_D#2_RR7.opus
</region>

<region>
hivel=84
key=D#3
lovel=43
sample=Cimbasso_staccatissimo_MF_D#3_RR7.opus
</region>

<region>
hivel=84
key=D2
lovel=43
sample=Cimbasso_staccatissimo_MF_D2_RR7.opus
</region>

<region>
hivel=84
key=D3
lovel=43
offset=306
sample=Cimbasso_staccatissimo_MF_D3_RR7.opus
</region>

<region>
hivel=84
key=E1
lovel=43
offset=32
sample=Cimbasso_staccatissimo_MF_E1_RR7.opus
</region>

<region>
hivel=84
key=E2
lovel=43
offset=117
sample=Cimbasso_staccatissimo_MF_E2_RR7.opus
</region>

<region>
hivel=84
key=E3
lovel=43
sample=Cimbasso_staccatissimo_MF_E3_RR7.opus
</region>

<region>
hivel=84
key=F#1
lovel=43
offset=1819
sample=Cimbasso_staccatissimo_MF_F#1_RR7.opus
</region>

<region>
hivel=84
key=F#2
lovel=43
sample=Cimbasso_staccatissimo_MF_F#2_RR7.opus
</region>

<region>
hivel=84
key=F#3
lovel=43
sample=Cimbasso_staccatissimo_MF_F#3_RR7.opus
</region>

<region>
hivel=84
key=F1
lovel=43
offset=42
sample=Cimbasso_staccatissimo_MF_F1_RR7.opus
</region>

<region>
hivel=84
key=F2
lovel=43
offset=94
sample=Cimbasso_staccatissimo_MF_F2_RR7.opus
</region>

<region>
hivel=84
key=F3
lovel=43
offset=108
sample=Cimbasso_staccatissimo_MF_F3_RR7.opus
</region>

<region>
hivel=84
key=G#1
lovel=43
offset=419
sample=Cimbasso_staccatissimo_MF_G#1_RR7.opus
</region>

<region>
hivel=84
key=G#2
lovel=43
sample=Cimbasso_staccatissimo_MF_G#2_RR7.opus
</region>

<region>
hivel=84
key=G#3
lovel=43
offset=214
sample=Cimbasso_staccatissimo_MF_G#3_RR7.opus
</region>

<region>
hivel=84
key=G1
lovel=43
offset=6
sample=Cimbasso_staccatissimo_MF_G1_RR7.opus
</region>

<region>
hivel=84
key=G2
lovel=43
offset=118
sample=Cimbasso_staccatissimo_MF_G2_RR7.opus
</region>

<region>
hivel=84
key=G3
lovel=43
offset=41
sample=Cimbasso_staccatissimo_MF_G3_RR7.opus
</region>

<region>
hivel=42
key=A#1
lovel=0
offset=4906
sample=Cimbasso_staccatissimo_PP_A#1_RR7.opus
</region>

<region>
hivel=42
key=A#2
lovel=0
offset=2605
sample=Cimbasso_staccatissimo_PP_A#2_RR7.opus
</region>

<region>
hivel=42
key=A#3
lovel=0
offset=94
sample=Cimbasso_staccatissimo_PP_A#3_RR7.opus
</region>

<region>
hivel=42
key=A1
lovel=0
offset=12009
sample=Cimbasso_staccatissimo_PP_A1_RR7.opus
</region>

<region>
hivel=42
key=A2
lovel=0
offset=434
sample=Cimbasso_staccatissimo_PP_A2_RR7.opus
</region>

<region>
hivel=42
key=A3
lovel=0
offset=513
sample=Cimbasso_staccatissimo_PP_A3_RR7.opus
</region>

<region>
hivel=42
key=B1
lovel=0
offset=9673
sample=Cimbasso_staccatissimo_PP_B1_RR7.opus
</region>

<region>
hivel=42
key=B2
lovel=0
offset=388
sample=Cimbasso_staccatissimo_PP_B2_RR7.opus
</region>

<region>
hivel=42
key=B3
lovel=0
offset=63
sample=Cimbasso_staccatissimo_PP_B3_RR7.opus
</region>

<region>
hivel=42
key=C#2
lovel=0
offset=11104
sample=Cimbasso_staccatissimo_PP_C#2_RR7.opus
</region>

<region>
hivel=42
key=C#3
lovel=0
offset=10975
sample=Cimbasso_staccatissimo_PP_C#3_RR7.opus
</region>

<region>
hivel=42
key=C2
lovel=0
offset=6295
sample=Cimbasso_staccatissimo_PP_C2_RR7.opus
</region>

<region>
hivel=42
key=C3
lovel=0
offset=832
sample=Cimbasso_staccatissimo_PP_C3_RR7.opus
</region>

<region>
hivel=42
key=C4
lovel=0
sample=Cimbasso_staccatissimo_PP_C4_RR7.opus
</region>

<region>
hivel=42
key=D#2
lovel=0
offset=8713
sample=Cimbasso_staccatissimo_PP_D#2_RR7.opus
</region>

<region>
hivel=42
key=D#3
lovel=0
offset=10346
sample=Cimbasso_staccatissimo_PP_D#3_RR7.opus
</region>

<region>
hivel=42
key=D2
lovel=0
offset=1539
sample=Cimbasso_staccatissimo_PP_D2_RR7.opus
</region>

<region>
hivel=42
key=D3
lovel=0
offset=221
sample=Cimbasso_staccatissimo_PP_D3_RR7.opus
</region>

<region>
hivel=42
key=E1
lovel=0
offset=8056
sample=Cimbasso_staccatissimo_PP_E1_RR7.opus
</region>

<region>
hivel=42
key=E2
lovel=0
offset=12002
sample=Cimbasso_staccatissimo_PP_E2_RR7.opus
</region>

<region>
hivel=42
key=E3
lovel=0
offset=9754
sample=Cimbasso_staccatissimo_PP_E3_RR7.opus
</region>

<region>
hivel=42
key=F#1
lovel=0
offset=10403
sample=Cimbasso_staccatissimo_PP_F#1_RR7.opus
</region>

<region>
hivel=42
key=F#2
lovel=0
offset=756
sample=Cimbasso_staccatissimo_PP_F#2_RR7.opus
</region>

<region>
hivel=42
key=F#3
lovel=0
offset=305
sample=Cimbasso_staccatissimo_PP_F#3_RR7.opus
</region>

<region>
hivel=42
key=F1
lovel=0
offset=12014
sample=Cimbasso_staccatissimo_PP_F1_RR7.opus
</region>

<region>
hivel=42
key=F2
lovel=0
offset=10256
sample=Cimbasso_staccatissimo_PP_F2_RR7.opus
</region>

<region>
hivel=42
key=F3
lovel=0
sample=Cimbasso_staccatissimo_PP_F3_RR7.opus
</region>

<region>
hivel=42
key=G#1
lovel=0
offset=10577
sample=Cimbasso_staccatissimo_PP_G#1_RR7.opus
</region>

<region>
hivel=42
key=G#2
lovel=0
offset=54
sample=Cimbasso_staccatissimo_PP_G#2_RR7.opus
</region>

<region>
hivel=42
key=G#3
lovel=0
offset=793
sample=Cimbasso_staccatissimo_PP_G#3_RR7.opus
</region>

<region>
hivel=42
key=G1
lovel=0
offset=10273
sample=Cimbasso_staccatissimo_PP_G1_RR7.opus
</region>

<region>
hivel=42
key=G2
lovel=0
offset=10512
sample=Cimbasso_staccatissimo_PP_G2_RR7.opus
</region>

<region>
hivel=42
key=G3
lovel=0
offset=328
sample=Cimbasso_staccatissimo_PP_G3_RR7.opus
</region>
</group>

<group>
group_label=RR8
seq_length=8
seq_position=8

<region>
hivel=127
key=A#1
lovel=85
offset=588
sample=Cimbasso_staccatissimo_FF_A#1_RR8.opus
</region>

<region>
hivel=127
key=A#2
lovel=85
sample=Cimbasso_staccatissimo_FF_A#2_RR8.opus
</region>

<region>
hivel=127
key=A#3
lovel=85
offset=502
sample=Cimbasso_staccatissimo_FF_A#3_RR8.opus
</region>

<region>
hivel=127
key=A1
lovel=85
offset=555
sample=Cimbasso_staccatissimo_FF_A1_RR8.opus
</region>

<region>
hivel=127
key=A2
lovel=85
offset=115
sample=Cimbasso_staccatissimo_FF_A2_RR8.opus
</region>

<region>
hivel=127
key=A3
lovel=85
offset=100
sample=Cimbasso_staccatissimo_FF_A3_RR8.opus
</region>

<region>
hivel=127
key=B1
lovel=85
offset=845
sample=Cimbasso_staccatissimo_FF_B1_RR8.opus
</region>

<region>
hivel=127
key=B2
lovel=85
offset=58
sample=Cimbasso_staccatissimo_FF_B2_RR8.opus
</region>

<region>
hivel=127
key=B3
lovel=85
offset=123
sample=Cimbasso_staccatissimo_FF_B3_RR8.opus
</region>

<region>
hivel=127
key=C#2
lovel=85
offset=216
sample=Cimbasso_staccatissimo_FF_C#2_RR8.opus
</region>

<region>
hivel=127
key=C#3
lovel=85
offset=247
sample=Cimbasso_staccatissimo_FF_C#3_RR8.opus
</region>

<region>
hivel=127
key=C2
lovel=85
offset=998
sample=Cimbasso_staccatissimo_FF_C2_RR8.opus
</region>

<region>
hivel=127
key=C3
lovel=85
sample=Cimbasso_staccatissimo_FF_C3_RR8.opus
</region>

<region>
hivel=127
key=C4
lovel=85
offset=204
sample=Cimbasso_staccatissimo_FF_C4_RR8.opus
</region>

<region>
hivel=127
key=D#2
lovel=85
offset=628
sample=Cimbasso_staccatissimo_FF_D#2_RR8.opus
</region>

<region>
hivel=127
key=D#3
lovel=85
sample=Cimbasso_staccatissimo_FF_D#3_RR8.opus
</region>

<region>
hivel=127
key=D2
lovel=85
offset=1286
sample=Cimbasso_staccatissimo_FF_D2_RR8.opus
</region>

<region>
hivel=127
key=D3
lovel=85
offset=70
sample=Cimbasso_staccatissimo_FF_D3_RR8.opus
</region>

<region>
hivel=127
key=E1
lovel=85
offset=404
sample=Cimbasso_staccatissimo_FF_E1_RR8.opus
</region>

<region>
hivel=127
key=E2
lovel=85
offset=810
sample=Cimbasso_staccatissimo_FF_E2_RR8.opus
</region>

<region>
hivel=127
key=E3
lovel=85
offset=108
sample=Cimbasso_staccatissimo_FF_E3_RR8.opus
</region>

<region>
hivel=127
key=F#1
lovel=85
offset=1549
sample=Cimbasso_staccatissimo_FF_F#1_RR8.opus
</region>

<region>
hivel=127
key=F#2
lovel=85
offset=528
sample=Cimbasso_staccatissimo_FF_F#2_RR8.opus
</region>

<region>
hivel=127
key=F#3
lovel=85
offset=480
sample=Cimbasso_staccatissimo_FF_F#3_RR8.opus
</region>

<region>
hivel=127
key=F1
lovel=85
offset=373
sample=Cimbasso_staccatissimo_FF_F1_RR8.opus
</region>

<region>
hivel=127
key=F2
lovel=85
offset=106
sample=Cimbasso_staccatissimo_FF_F2_RR8.opus
</region>

<region>
hivel=127
key=F3
lovel=85
offset=240
sample=Cimbasso_staccatissimo_FF_F3_RR8.opus
</region>

<region>
hivel=127
key=G#1
lovel=85
offset=477
sample=Cimbasso_staccatissimo_FF_G#1_RR8.opus
</region>

<region>
hivel=127
key=G#2
lovel=85
offset=458
sample=Cimbasso_staccatissimo_FF_G#2_RR8.opus
</region>

<region>
hivel=127
key=G#3
lovel=85
offset=1069
sample=Cimbasso_staccatissimo_FF_G#3_RR8.opus
</region>

<region>
hivel=127
key=G1
lovel=85
offset=1115
sample=Cimbasso_staccatissimo_FF_G1_RR8.opus
</region>

<region>
hivel=127
key=G2
lovel=85
offset=474
sample=Cimbasso_staccatissimo_FF_G2_RR8.opus
</region>

<region>
hivel=127
key=G3
lovel=85
offset=836
sample=Cimbasso_staccatissimo_FF_G3_RR8.opus
</region>

<region>
hivel=84
key=A#1
lovel=43
offset=354
sample=Cimbasso_staccatissimo_MF_A#1_RR8.opus
</region>

<region>
hivel=84
key=A#2
lovel=43
offset=64
sample=Cimbasso_staccatissimo_MF_A#2_RR8.opus
</region>

<region>
hivel=84
key=A#3
lovel=43
offset=896
sample=Cimbasso_staccatissimo_MF_A#3_RR8.opus
</region>

<region>
hivel=84
key=A1
lovel=43
offset=368
sample=Cimbasso_staccatissimo_MF_A1_RR8.opus
</region>

<region>
hivel=84
key=A2
lovel=43
sample=Cimbasso_staccatissimo_MF_A2_RR8.opus
</region>

<region>
hivel=84
key=A3
lovel=43
offset=60
sample=Cimbasso_staccatissimo_MF_A3_RR8.opus
</region>

<region>
hivel=84
key=B1
lovel=43
offset=407
sample=Cimbasso_staccatissimo_MF_B1_RR8.opus
</region>

<region>
hivel=84
key=B2
lovel=43
offset=426
sample=Cimbasso_staccatissimo_MF_B2_RR8.opus
</region>

<region>
hivel=84
key=B3
lovel=43
offset=130
sample=Cimbasso_staccatissimo_MF_B3_RR8.opus
</region>

<region>
hivel=84
key=C#2
lovel=43
sample=Cimbasso_staccatissimo_MF_C#2_RR8.opus
</region>

<region>
hivel=84
key=C#3
lovel=43
sample=Cimbasso_staccatissimo_MF_C#3_RR8.opus
</region>

<region>
hivel=84
key=C2
lovel=43
offset=251
sample=Cimbasso_staccatissimo_MF_C2_RR8.opus
</region>

<region>
hivel=84
key=C3
lovel=43
offset=17
sample=Cimbasso_staccatissimo_MF_C3_RR8.opus
</region>

<region>
hivel=84
key=C4
lovel=43
offset=53
sample=Cimbasso_staccatissimo_MF_C4_RR8.opus
</region>

<region>
hivel=84
key=D#2
lovel=43
sample=Cimbasso_staccatissimo_MF_D#2_RR8.opus
</region>

<region>
hivel=84
key=D#3
lovel=43
sample=Cimbasso_staccatissimo_MF_D#3_RR8.opus
</region>

<region>
hivel=84
key=D2
lovel=43
offset=506
sample=Cimbasso_staccatissimo_MF_D2_RR8.opus
</region>

<region>
hivel=84
key=D3
lovel=43
offset=296
sample=Cimbasso_staccatissimo_MF_D3_RR8.opus
</region>

<region>
hivel=84
key=E1
lovel=43
offset=27
sample=Cimbasso_staccatissimo_MF_E1_RR8.opus
</region>

<region>
hivel=84
key=E2
lovel=43
offset=309
sample=Cimbasso_staccatissimo_MF_E2_RR8.opus
</region>

<region>
hivel=84
key=E3
lovel=43
sample=Cimbasso_staccatissimo_MF_E3_RR8.opus
</region>

<region>
hivel=84
key=F#1
lovel=43
offset=1775
sample=Cimbasso_staccatissimo_MF_F#1_RR8.opus
</region>

<region>
hivel=84
key=F#2
lovel=43
offset=447
sample=Cimbasso_staccatissimo_MF_F#2_RR8.opus
</region>

<region>
hivel=84
key=F#3
lovel=43
offset=98
sample=Cimbasso_staccatissimo_MF_F#3_RR8.opus
</region>

<region>
hivel=84
key=F1
lovel=43
offset=150
sample=Cimbasso_staccatissimo_MF_F1_RR8.opus
</region>

<region>
hivel=84
key=F2
lovel=43
offset=85
sample=Cimbasso_staccatissimo_MF_F2_RR8.opus
</region>

<region>
hivel=84
key=F3
lovel=43
offset=110
sample=Cimbasso_staccatissimo_MF_F3_RR8.opus
</region>

<region>
hivel=84
key=G#1
lovel=43
offset=2462
sample=Cimbasso_staccatissimo_MF_G#1_RR8.opus
</region>

<region>
hivel=84
key=G#2
lovel=43
sample=Cimbasso_staccatissimo_MF_G#2_RR8.opus
</region>

<region>
hivel=84
key=G#3
lovel=43
offset=476
sample=Cimbasso_staccatissimo_MF_G#3_RR8.opus
</region>

<region>
hivel=84
key=G1
lovel=43
offset=145
sample=Cimbasso_staccatissimo_MF_G1_RR8.opus
</region>

<region>
hivel=84
key=G2
lovel=43
offset=27
sample=Cimbasso_staccatissimo_MF_G2_RR8.opus
</region>

<region>
hivel=84
key=G3
lovel=43
offset=590
sample=Cimbasso_staccatissimo_MF_G3_RR8.opus
</region>

<region>
hivel=42
key=A#1
lovel=0
offset=6869
sample=Cimbasso_staccatissimo_PP_A#1_RR8.opus
</region>

<region>
hivel=42
key=A#2
lovel=0
offset=313
sample=Cimbasso_staccatissimo_PP_A#2_RR8.opus
</region>

<region>
hivel=42
key=A#3
lovel=0
offset=453
sample=Cimbasso_staccatissimo_PP_A#3_RR8.opus
</region>

<region>
hivel=42
key=A1
lovel=0
offset=11398
sample=Cimbasso_staccatissimo_PP_A1_RR8.opus
</region>

<region>
hivel=42
key=A2
lovel=0
offset=425
sample=Cimbasso_staccatissimo_PP_A2_RR8.opus
</region>

<region>
hivel=42
key=A3
lovel=0
offset=11318
sample=Cimbasso_staccatissimo_PP_A3_RR8.opus
</region>

<region>
hivel=42
key=B1
lovel=0
offset=7894
sample=Cimbasso_staccatissimo_PP_B1_RR8.opus
</region>

<region>
hivel=42
key=B2
lovel=0
offset=810
sample=Cimbasso_staccatissimo_PP_B2_RR8.opus
</region>

<region>
hivel=42
key=B3
lovel=0
sample=Cimbasso_staccatissimo_PP_B3_RR8.opus
</region>

<region>
hivel=42
key=C#2
lovel=0
offset=10031
sample=Cimbasso_staccatissimo_PP_C#2_RR8.opus
</region>

<region>
hivel=42
key=C#3
lovel=0
offset=10440
sample=Cimbasso_staccatissimo_PP_C#3_RR8.opus
</region>

<region>
hivel=42
key=C2
lovel=0
offset=12428
sample=Cimbasso_staccatissimo_PP_C2_RR8.opus
</region>

<region>
hivel=42
key=C3
lovel=0
offset=10064
sample=Cimbasso_staccatissimo_PP_C3_RR8.opus
</region>

<region>
hivel=42
key=C4
lovel=0
offset=68
sample=Cimbasso_staccatissimo_PP_C4_RR8.opus
</region>

<region>
hivel=42
key=D#2
lovel=0
offset=7400
sample=Cimbasso_staccatissimo_PP_D#2_RR8.opus
</region>

<region>
hivel=42
key=D#3
lovel=0
offset=9111
sample=Cimbasso_staccatissimo_PP_D#3_RR8.opus
</region>

<region>
hivel=42
key=D2
lovel=0
sample=Cimbasso_staccatissimo_PP_D2_RR8.opus
</region>

<region>
hivel=42
key=D3
lovel=0
offset=315
sample=Cimbasso_staccatissimo_PP_D3_RR8.opus
</region>

<region>
hivel=42
key=E1
lovel=0
offset=11692
sample=Cimbasso_staccatissimo_PP_E1_RR8.opus
</region>

<region>
hivel=42
key=E2
lovel=0
offset=14497
sample=Cimbasso_staccatissimo_PP_E2_RR8.opus
</region>

<region>
hivel=42
key=E3
lovel=0
offset=8456
sample=Cimbasso_staccatissimo_PP_E3_RR8.opus
</region>

<region>
hivel=42
key=F#1
lovel=0
offset=8481
sample=Cimbasso_staccatissimo_PP_F#1_RR8.opus
</region>

<region>
hivel=42
key=F#2
lovel=0
offset=4075
sample=Cimbasso_staccatissimo_PP_F#2_RR8.opus
</region>

<region>
hivel=42
key=F#3
lovel=0
offset=10997
sample=Cimbasso_staccatissimo_PP_F#3_RR8.opus
</region>

<region>
hivel=42
key=F1
lovel=0
offset=2402
sample=Cimbasso_staccatissimo_PP_F1_RR8.opus
</region>

<region>
hivel=42
key=F2
lovel=0
offset=9341
sample=Cimbasso_staccatissimo_PP_F2_RR8.opus
</region>

<region>
hivel=42
key=F3
lovel=0
offset=311
sample=Cimbasso_staccatissimo_PP_F3_RR8.opus
</region>

<region>
hivel=42
key=G#1
lovel=0
offset=1364
sample=Cimbasso_staccatissimo_PP_G#1_RR8.opus
</region>

<region>
hivel=42
key=G#2
lovel=0
offset=9224
sample=Cimbasso_staccatissimo_PP_G#2_RR8.opus
</region>

<region>
hivel=42
key=G#3
lovel=0
offset=311
sample=Cimbasso_staccatissimo_PP_G#3_RR8.opus
</region>

<region>
hivel=42
key=G1
lovel=0
offset=8867
sample=Cimbasso_staccatissimo_PP_G1_RR8.opus
</region>

<region>
hivel=42
key=G2
lovel=0
offset=9366
sample=Cimbasso_staccatissimo_PP_G2_RR8.opus
</region>

<region>
hivel=42
key=G3
lovel=0
offset=482
sample=Cimbasso_staccatissimo_PP_G3_RR8.opus
</region>
</group>